<svg width="187" height="52" viewBox="0 0 187 52" fill="none" xmlns="http://www.w3.org/2000/svg">
<g clip-path="url(#clip0_835_9448)">
<path d="M54.8648 34.0938L54.8422 34.2069C53.8267 33.5286 53.2174 32.5338 53.0142 31.2225H56.4898C56.6027 31.7877 56.8736 32.1946 57.3023 32.4433C57.7311 32.692 58.2502 32.8277 58.8596 32.8277C59.6043 32.8277 60.1911 32.7146 60.5973 32.4886C61.0036 32.2625 61.2067 31.946 61.2067 31.5391C61.2067 31.2904 61.139 31.0643 61.0036 30.8833C60.8682 30.7025 60.6425 30.5443 60.3265 30.4086C60.0106 30.273 59.5817 30.1373 59.0175 30.0017L56.851 29.5269C55.6547 29.2782 54.7521 28.8712 54.1426 28.306C53.5332 27.7407 53.24 27.0173 53.24 26.113C53.24 25.3669 53.4882 24.6886 53.9621 24.1007C54.4361 23.513 55.0905 23.0607 55.903 22.7443C56.7155 22.4277 57.6183 22.2695 58.5887 22.2695C59.5366 22.2695 60.3942 22.4051 61.1842 22.6764C61.9741 22.9477 62.6285 23.332 63.1702 23.852C63.7118 24.372 64.073 25.0277 64.2535 25.7964H60.778C60.6425 25.412 60.3717 25.1182 59.9881 24.9146C59.6043 24.7112 59.153 24.5982 58.6339 24.5982C58.0471 24.5982 57.5506 24.7112 57.1668 24.9146C56.7832 25.1182 56.5801 25.412 56.5801 25.7738C56.5801 26.113 56.7381 26.3617 57.0541 26.5425C57.3701 26.7233 57.8666 26.8817 58.5662 27.0399L60.7328 27.5146C62.0192 27.8086 62.9671 28.2382 63.5765 28.826C64.1858 29.4138 64.5017 30.2051 64.5017 31.1773C64.5017 31.9912 64.2535 32.692 63.757 33.2799C63.2605 33.8677 62.5835 34.3199 61.7032 34.6364C60.823 34.953 59.83 35.1112 58.7241 35.1112C57.1668 35.1112 55.8804 34.772 54.8648 34.0938Z" fill="white"/>
<path d="M73.7617 22.5407L77.2598 22.4956V34.772H73.8519V32.353C73.536 33.1669 73.0621 33.8225 72.4301 34.3199C71.7981 34.8173 70.9858 35.066 69.9701 35.066C68.616 35.066 67.6004 34.6364 66.9233 33.7773C66.2463 32.9182 65.9077 31.7651 65.9077 30.3182V22.5407H69.3608V29.572C69.3608 31.6295 70.1055 32.6695 71.5725 32.6695C73.0395 32.6695 73.7617 31.6295 73.7617 29.5269V22.5407Z" fill="white"/>
<path d="M97.1883 23.5809L97.0302 23.6714C97.6848 24.5306 98.0006 25.6835 98.0006 27.1306V34.908H94.5477V27.8766C94.5477 26.814 94.3896 26.0227 94.0512 25.5253C93.7126 25.028 93.1935 24.7793 92.4939 24.7793C91.7942 24.7793 91.2751 25.028 90.9367 25.5253C90.5981 26.0227 90.4176 26.814 90.4176 27.8993V34.8853H86.9645V27.854C86.9645 26.7914 86.8066 26.0001 86.468 25.5027C86.1294 25.0053 85.6104 24.7566 84.9108 24.7566C84.2112 24.7566 83.6921 25.0053 83.3535 25.5027C83.0149 26.0001 82.8344 26.7914 82.8344 27.8766V34.8627H79.3813V22.5862H82.8118V25.0958C83.1504 24.2593 83.6243 23.5809 84.2336 23.0835C84.843 22.5862 85.6329 22.3375 86.6034 22.3375C87.5965 22.3375 88.4089 22.6088 89.0409 23.174C89.6728 23.7393 90.1016 24.4401 90.3498 25.2993C90.6658 24.4401 91.1398 23.7166 91.7716 23.1514C92.4036 22.5862 93.2161 22.2922 94.2091 22.2922C95.5407 22.2922 96.5337 22.7219 97.1883 23.5809Z" fill="white"/>
<path d="M118.022 23.5809L117.864 23.6714C118.519 24.5306 118.835 25.6835 118.835 27.1306V34.908H115.382V27.8766C115.382 26.814 115.224 26.0227 114.885 25.5253C114.546 25.028 114.027 24.7793 113.328 24.7793C112.628 24.7793 112.109 25.028 111.771 25.5253C111.432 26.0227 111.251 26.814 111.251 27.8993V34.8853H107.798V27.854C107.798 26.7914 107.64 26.0001 107.302 25.5027C106.963 25.0053 106.444 24.7566 105.745 24.7566C105.045 24.7566 104.526 25.0053 104.187 25.5027C103.849 26.0001 103.668 26.7914 103.668 27.8766V34.8627H100.215V22.5862H103.646V25.0958C103.984 24.2593 104.458 23.5809 105.068 23.0835C105.677 22.5862 106.467 22.3375 107.437 22.3375C108.43 22.3375 109.243 22.6088 109.875 23.174C110.507 23.7393 110.935 24.4401 111.184 25.2993C111.5 24.4401 111.974 23.7166 112.606 23.1514C113.237 22.5862 114.05 22.2922 115.043 22.2922C116.375 22.2922 117.368 22.7219 118.022 23.5809Z" fill="white"/>
<path d="M123.464 34.2749L123.419 34.2975C122.448 33.7549 121.703 33.0088 121.184 32.0366C120.665 31.0645 120.417 29.9566 120.417 28.7132C120.417 27.4697 120.688 26.3619 121.207 25.3897C121.726 24.4175 122.471 23.6488 123.441 23.1062C124.412 22.5635 125.54 22.2922 126.827 22.2922C128.113 22.2922 129.241 22.5635 130.212 23.1062C131.183 23.6488 131.928 24.3949 132.447 25.3671C132.966 26.3393 133.236 27.4471 133.236 28.6906C133.236 29.934 132.988 31.0419 132.469 32.014C131.95 32.9862 131.205 33.7322 130.234 34.2749C129.264 34.8175 128.136 35.0888 126.849 35.0888C125.563 35.0888 124.434 34.8175 123.464 34.2749ZM128.925 31.6975C129.422 30.974 129.67 29.9793 129.67 28.7132C129.67 27.4471 129.422 26.4522 128.925 25.7288C128.429 25.0053 127.729 24.6435 126.804 24.6435C125.879 24.6435 125.179 25.0053 124.682 25.7288C124.186 26.4522 123.938 27.4471 123.938 28.7132C123.938 29.9793 124.186 30.974 124.682 31.6975C125.179 32.4209 125.879 32.7827 126.804 32.7827C127.729 32.7827 128.429 32.4209 128.925 31.6975Z" fill="white"/>
<path d="M144.403 22.8799L144.357 22.8573C144.966 23.2643 145.418 23.8295 145.711 24.553C146.004 25.2764 146.163 26.0904 146.163 27.0173V34.7946H142.709V27.7633C142.709 26.7233 142.529 25.9546 142.145 25.4346C141.762 24.9146 141.197 24.666 140.453 24.666C139.731 24.666 139.167 24.9146 138.782 25.4346C138.398 25.9546 138.196 26.746 138.196 27.8086V34.7946H134.743V22.5182H138.174V25.0277C138.467 24.1912 138.941 23.513 139.595 23.0156C140.25 22.5182 141.085 22.2695 142.101 22.2695C143.026 22.2695 143.793 22.473 144.403 22.8799Z" fill="white"/>
<path d="M152.052 34.8174H148.327V31.3584H152.052V34.8174Z" fill="white"/>
<path d="M159.805 20.0992L159.783 20.0766C159.264 20.0766 158.88 20.1897 158.632 20.3931C158.384 20.5966 158.271 20.9583 158.271 21.4783V22.4957H161.024V25.0279H158.271V34.7721H154.818V25.0279H152.605V22.4957H154.818V21.2748C154.818 20.4835 154.998 19.8052 155.359 19.2626C155.72 18.72 156.217 18.3131 156.849 18.0418C157.481 17.7705 158.203 17.6348 159.038 17.6348H161.024V20.0992H159.805Z" fill="#00BBFF"/>
<path d="M169.877 22.5407L173.375 22.4956V34.772H169.968V32.353C169.651 33.1669 169.177 33.8225 168.545 34.3199C167.913 34.8173 167.101 35.066 166.085 35.066C164.731 35.066 163.715 34.6364 163.039 33.7773C162.362 32.9182 162.023 31.7651 162.023 30.3182V22.5407H165.476V29.572C165.476 31.6295 166.221 32.6695 167.687 32.6695C169.155 32.6695 169.877 31.6295 169.877 29.5269V22.5407Z" fill="#00BBFF"/>
<path d="M185.178 22.8799L185.134 22.8573C185.742 23.2643 186.194 23.8295 186.487 24.553C186.781 25.2764 186.939 26.0904 186.939 27.0173V34.7946H183.486V27.7633C183.486 26.7233 183.305 25.9546 182.921 25.4346C182.538 24.9146 181.974 24.666 181.229 24.666C180.506 24.666 179.943 24.9146 179.559 25.4346C179.175 25.9546 178.972 26.746 178.972 27.8086V34.7946H175.519V22.5182H178.949V25.0277C179.242 24.1912 179.717 23.513 180.371 23.0156C181.025 22.5182 181.861 22.2695 182.876 22.2695C183.802 22.2695 184.569 22.473 185.178 22.8799Z" fill="#00BBFF"/>
<path d="M45.475 22.2812C45.2053 21.1119 44.2128 19.7032 43.2156 19.074C42.3249 18.5121 41.3649 18.2251 40.4579 17.9793C39.2286 17.6461 37.9692 17.3456 36.707 17.0847C36.557 16.7106 36.3816 16.3514 36.294 16.1775C36.1417 15.8753 35.8656 15.6589 35.536 15.5836C35.455 15.5652 35.3726 15.5467 35.2888 15.5281C34.6189 13.4542 33.4904 11.7484 32.3005 9.94987C31.9091 9.35831 31.5058 8.74862 31.1264 8.13138C31.1528 7.70926 31.3418 7.17237 32.144 6.53914C32.6547 6.13605 33.0559 5.87759 33.5951 5.74933C34.4468 5.54675 34.8304 5.62813 34.9373 5.66237C35.659 6.68599 35.9717 7.52708 35.9498 8.38058C35.93 9.14896 35.9686 10.0439 36.4057 10.8558C36.5512 11.1257 36.8038 11.3274 37.0991 11.4092C37.3943 11.491 37.7146 11.448 37.9775 11.2913C39.2043 10.5608 39.9654 9.10503 39.9638 7.49215C39.9628 6.5781 39.7348 5.67199 39.2861 4.79907C38.8824 4.01378 38.304 3.28067 37.6132 2.67904C36.4611 1.6754 34.9815 0.953395 33.0898 0.471753C31.13 -0.0272317 29.283 -0.130958 27.6003 0.163349C25.849 0.469651 24.1626 1.22298 22.5882 2.40244C21.2059 3.43799 19.9219 4.81023 18.8751 6.37084C16.9987 9.16824 15.908 12.2952 14.8871 15.3449C14.5517 15.411 14.2186 15.4801 13.8921 15.5512C13.525 15.6313 13.2225 15.8878 13.0833 16.2371L12.8012 16.9438C12.2198 17.0664 11.645 17.1982 11.0873 17.3365L10.8437 17.3969C9.89098 17.6319 8.90587 17.875 7.96575 18.2829C7.20925 18.6112 6.19798 19.3526 5.72894 20.1345C5.27 20.8997 4.95605 22.1304 5.28918 23.1551C5.42059 23.5592 5.62376 23.9087 5.86573 24.2161C5.58248 24.0526 5.28339 23.9024 4.96987 23.7665C4.19106 23.4287 2.66472 22.85 1.19309 22.7685L1.18853 22.7682C0.728301 22.7454 0.305988 22.9988 0.109467 23.4143C-0.0879957 23.8321 -0.0141915 24.3223 0.297558 24.6633C0.76068 25.1697 1.00011 25.6655 1.07384 26.271C1.14573 26.8609 1.08137 27.5437 0.871241 28.42C0.849716 28.5098 0.827358 28.5997 0.804781 28.6903C0.629315 29.3955 0.430443 30.1946 0.572624 31.0648C0.742844 32.1068 1.41772 33.0903 2.3779 33.6959C3.21792 34.2256 4.31124 34.5419 5.30257 34.5419L5.33463 34.5418C5.38748 34.5415 5.44022 34.5401 5.49283 34.5376C6.37382 36.0868 7.21811 37.6785 8.00915 39.2812C7.71147 39.777 7.51648 40.3521 7.43833 40.9727C7.29658 42.0987 8.0271 43.0206 8.46359 43.5714C9.11094 44.3885 10.0095 44.875 10.9288 44.906C10.9846 44.908 11.0406 44.908 11.0967 44.9064L12.6316 47.6733C12.7998 47.9762 13.0921 48.1827 13.4339 48.2399C13.4804 48.2475 13.5276 48.2531 13.5753 48.2563C13.0572 48.8591 12.6569 49.5691 12.4644 50.2456C12.3769 50.5532 12.424 50.8851 12.5934 51.1566C12.763 51.4277 13.0406 51.6151 13.355 51.6706C14.6283 51.8953 15.9403 52 17.4838 52C18.1722 52 18.8979 51.9792 19.7021 51.9363C20.8642 51.8743 22.0773 51.7215 23.1353 51.0618C24.2171 51.2567 25.3443 51.258 26.4333 51.0628C27.4913 51.7217 28.7035 51.8744 29.8648 51.9363C30.6692 51.9792 31.3948 52 32.0832 52C33.6265 52 34.9385 51.8953 36.2118 51.6706C36.5264 51.6151 36.804 51.4277 36.9736 51.1563C37.1429 50.8851 37.1899 50.5532 37.1024 50.2455C36.8699 49.4281 36.3338 48.5616 35.6533 47.8947C35.6458 47.8773 35.6381 47.8598 35.6306 47.8422C36.9869 47.7129 38.2582 46.8485 38.8594 45.62C39.4386 44.4365 39.3768 42.9413 38.7019 41.8107C38.6924 41.7947 38.6824 41.7787 38.6721 41.763C38.3302 40.6919 37.7695 39.6978 37.0326 38.8501C37.1197 38.6131 37.1499 38.3517 37.1154 38.0891C37.0727 37.764 36.9455 37.5084 36.8396 37.3222C36.4519 36.64 35.8892 36.0681 35.2182 35.6647C35.2149 35.6368 35.2106 35.6089 35.2053 35.5813C35.1376 35.2303 35.0194 34.9019 34.8547 34.6031C35.667 34.0703 36.3892 33.4307 37.0098 32.6936C38.0568 31.4501 38.7738 29.8396 39.0624 28.1037C40.2434 27.8593 41.5437 27.3291 42.9385 26.5225C43.5508 26.1683 44.322 25.6758 44.8556 25.0047C45.4882 24.2091 45.7024 23.2674 45.475 22.2812ZM44.1891 24.473C43.7446 25.0319 43.0596 25.4669 42.5125 25.7833C40.9529 26.6854 39.5372 27.2168 38.3023 27.3642C38.1161 29.1831 37.4352 30.8646 36.3585 32.1433C35.5885 33.0578 34.6551 33.8016 33.5745 34.3667C33.9842 34.7104 34.2611 35.1851 34.3687 35.7431C34.3711 35.756 34.3727 35.769 34.3734 35.7818C34.3753 35.8207 34.3692 35.8597 34.3551 35.8962C34.324 35.9767 34.2911 36.0565 34.2572 36.1358C35.0249 36.4459 35.6899 37.0245 36.0992 37.7446C36.1709 37.8707 36.2474 38.0236 36.2706 38.2006C36.2744 38.2291 36.2766 38.2574 36.2772 38.2856C36.2816 38.4823 36.2114 38.6669 36.0817 38.7915C36.0329 38.8383 35.9833 38.8846 35.9336 38.9307C36.832 39.7942 37.5019 40.8745 37.8742 42.0659C37.8812 42.0885 37.885 42.1113 37.8861 42.1338C37.9174 42.1699 37.9462 42.208 37.9707 42.2491C38.2526 42.7212 38.3983 43.2744 38.4048 43.8287C38.4105 44.3179 38.3077 44.808 38.0943 45.2443C37.586 46.2831 36.4686 46.9907 35.3139 47.0054C35.302 47.0055 35.2898 47.0057 35.2773 47.0057C34.9925 47.0057 34.6287 46.9626 34.2871 46.7987C34.4934 47.339 34.7118 47.8712 34.9416 48.3954C35.5465 48.9484 36.0732 49.7419 36.2829 50.4795C36.2911 50.508 36.2945 50.5371 36.2934 50.5661C36.2916 50.6143 36.2774 50.6618 36.2513 50.7036C36.2095 50.7703 36.1415 50.8163 36.064 50.83C34.857 51.0431 33.5801 51.1465 32.0832 51.1465C31.4081 51.1465 30.6885 51.1255 29.9101 51.084C28.7807 51.0238 27.6063 50.8742 26.6675 50.1927C26.6517 50.1813 26.6374 50.1684 26.6247 50.1545C26.5696 50.1667 26.514 50.1781 26.4585 50.1892C26.4412 50.1926 26.4238 50.1962 26.4065 50.1996C25.8737 50.3031 25.3317 50.3558 24.7895 50.3558C24.2744 50.3558 23.7593 50.309 23.2522 50.2155C23.1661 50.2018 23.0807 50.1847 22.9959 50.1641C22.9787 50.1604 22.9614 50.1559 22.9442 50.1521C22.9309 50.1669 22.9161 50.1806 22.8994 50.1927C21.9606 50.8742 20.7862 51.0238 19.6568 51.084C18.8786 51.1255 18.1587 51.1465 17.4838 51.1465C15.9866 51.1465 14.7099 51.0431 13.5029 50.83C13.4255 50.8163 13.3573 50.7703 13.3157 50.7036C13.2896 50.6618 13.2752 50.6143 13.2735 50.5661C13.2725 50.5371 13.2758 50.508 13.2839 50.4795C13.4937 49.7419 14.0205 48.9484 14.6253 48.3954C15.3663 46.7059 15.9853 44.9298 16.4775 43.084C16.4677 43.0581 16.4615 43.0304 16.4598 43.0013C16.4329 42.5409 16.3352 42.1284 16.1514 41.7244C15.4495 42.8372 14.2176 43.6054 12.9118 43.7499C13.5878 44.9089 14.5249 46.6167 14.5355 46.6363C14.5584 46.6778 14.5698 46.7236 14.5699 46.7695C14.57 46.8153 14.5589 46.8612 14.5364 46.9028C14.4003 47.155 14.015 47.4062 13.6763 47.4062C13.6415 47.4062 13.6071 47.4035 13.5737 47.3979C13.4901 47.384 13.4175 47.3326 13.3764 47.2585L11.5553 43.9759C11.3802 44.0267 11.1997 44.054 11.0185 44.054C10.9982 44.054 10.9779 44.0536 10.9576 44.053C10.2884 44.0303 9.62267 43.6615 9.13097 43.0409C8.77848 42.5961 8.25709 41.9379 8.27313 41.2233C8.2742 41.1757 8.27765 41.1277 8.28371 41.0796C8.36766 40.4127 8.61765 39.8139 8.99614 39.3583C8.05543 37.4256 7.03496 35.5023 5.96156 33.6407C5.95842 33.6353 5.95584 33.6297 5.95319 33.6241C5.95244 33.6224 5.95157 33.621 5.95083 33.6194C5.74854 33.664 5.54212 33.6869 5.32868 33.6883C5.32 33.6885 5.31128 33.6885 5.30257 33.6885C4.47694 33.6885 3.53278 33.4157 2.83186 32.9736C2.07516 32.4964 1.54492 31.7313 1.41352 30.927C1.38507 30.7529 1.37427 30.5799 1.37664 30.408C1.38371 29.8927 1.50922 29.3885 1.63161 28.8965C1.65468 28.804 1.67767 28.7115 1.69977 28.6192C1.87572 27.8854 1.95901 27.2637 1.95397 26.706C1.9523 26.52 1.9408 26.3412 1.91966 26.1677C1.82433 25.3851 1.50852 24.7239 0.925834 24.0868C0.878138 24.0345 0.853122 23.9676 0.852872 23.8997C0.852711 23.859 0.861469 23.8179 0.879598 23.7796C0.927969 23.6773 1.03328 23.6151 1.14605 23.6207C2.48557 23.6948 3.90471 24.2346 4.63138 24.5497C5.89977 25.0999 6.8946 25.9004 7.50826 26.8649C7.92439 27.5188 8.20977 28.3145 8.3565 29.2298C8.41844 29.6163 8.44744 29.9754 8.44343 30.3116C8.43944 30.6479 8.40244 30.9614 8.33237 31.2571C8.15637 31.9995 7.76169 32.6253 7.221 33.019C7.13025 33.085 7.03995 33.1455 6.94976 33.2014C7.46597 34.1176 7.98787 35.0401 8.49329 35.9336C8.99078 36.8129 9.50414 37.7204 10.0126 38.6226C10.4544 38.4532 10.9334 38.4186 11.3647 38.5419C11.6998 38.6378 12.0328 38.8413 12.2901 39.1149C12.6149 38.8878 12.9776 38.7191 13.3595 38.6165C13.315 38.5245 13.2908 38.4199 13.2896 38.3109C13.2892 38.2745 13.2914 38.2377 13.2963 38.2006C13.3196 38.0236 13.396 37.8707 13.4678 37.7446C13.8771 37.0245 14.542 36.4459 15.3097 36.1358C15.2759 36.0565 15.2429 35.9767 15.2119 35.8962C15.1977 35.8597 15.1916 35.8207 15.1936 35.7818C15.1942 35.769 15.1958 35.756 15.1983 35.7431C15.3119 35.1539 15.6591 34.6038 16.1359 34.2329C15.4437 33.822 14.8026 33.3441 14.2339 32.8104C13.0447 31.6945 12.1997 30.3542 11.7902 28.9345C11.5844 28.2212 11.4892 27.5106 11.4749 26.8037C11.4552 26.8004 11.4357 26.7952 11.4164 26.7874C10.0529 26.2411 8.76242 25.5212 7.58081 24.6476C6.98823 24.2094 6.34881 23.658 6.09937 22.8908C6.03253 22.6853 6.0034 22.4594 6.00402 22.2275C6.00561 21.6353 6.2015 21.0041 6.4593 20.5742C6.81838 19.9755 7.67939 19.3374 8.30437 19.0662C9.17903 18.6867 10.1289 18.4523 11.0475 18.2256L11.2915 18.1653C11.9902 17.9919 12.7043 17.8318 13.4236 17.6869C13.426 17.6791 13.4286 17.6713 13.4316 17.6635L13.8745 16.5539C13.9086 16.4681 13.9832 16.405 14.0733 16.3853C14.5599 16.2792 15.0479 16.1808 15.5368 16.0894C16.5902 12.9354 17.6836 9.67762 19.5823 6.8469C20.5762 5.36516 21.7922 4.06466 23.0985 3.08602C24.5646 1.98765 26.1286 1.28722 27.7469 1.00421C29.3105 0.730741 31.0376 0.829972 32.8799 1.29904C34.6394 1.74702 36.0048 2.40911 37.0542 3.32315C37.664 3.85438 38.1738 4.49986 38.5286 5.18986C38.9148 5.94105 39.1109 6.71593 39.1117 7.49299C39.1131 8.80599 38.5116 9.98033 37.5421 10.5576C37.4771 10.5964 37.399 10.6068 37.326 10.5866C37.2531 10.5664 37.1915 10.5172 37.1555 10.4505C36.8563 9.89456 36.7968 9.24598 36.798 8.65298C36.7981 8.56825 36.7995 8.48466 36.8016 8.40263C36.8025 8.36917 36.8029 8.33574 36.8031 8.30237C36.8051 7.26751 36.4252 6.27328 35.58 5.09488C35.3741 4.80789 34.6928 4.61097 33.3983 4.91891C32.709 5.08283 32.2057 5.40389 31.6166 5.86875C30.6932 6.59773 30.2622 7.36789 30.2709 8.28084C30.2712 8.31029 30.2719 8.33989 30.2731 8.36963C30.6972 9.0714 31.151 9.75745 31.5903 10.4215C32.8354 12.3036 34.0116 14.0813 34.6175 16.2539C34.6176 16.2547 34.6177 16.2555 34.618 16.2561C34.8614 16.3076 35.1045 16.3606 35.3468 16.416C35.4276 16.4343 35.4959 16.4879 35.5332 16.562C35.6299 16.7541 35.9325 17.371 36.0669 17.8257C37.4681 18.1045 38.8625 18.431 40.2354 18.8032C41.0799 19.0321 41.9707 19.2975 42.7615 19.7963C43.5645 20.3029 44.427 21.5288 44.6447 22.4734C44.687 22.6569 44.7092 22.8365 44.7113 23.0121C44.7174 23.5386 44.5427 24.0282 44.1891 24.473ZM9.1978 29.0945C9.0325 28.0634 8.7058 27.1588 8.22681 26.406C8.1098 26.2222 7.98129 26.0438 7.84172 25.8712C8.73099 26.4599 9.67134 26.9694 10.6508 27.3929C10.6988 28.0068 10.8048 28.5931 10.9716 29.1713C11.4237 30.7386 12.3503 32.2124 13.6514 33.4333C14.0195 33.7789 14.417 34.1041 14.8396 34.4055C14.6066 34.7656 14.4416 35.1667 14.3618 35.5807C14.3563 35.6087 14.352 35.6366 14.3488 35.6647C13.6777 36.0681 13.115 36.64 12.7274 37.3221C12.627 37.4986 12.5076 37.7372 12.459 38.0379C12.43 38.0513 12.4011 38.0649 12.3724 38.0789C12.1305 37.9205 11.8677 37.7981 11.5986 37.7212C11.3512 37.6503 11.0912 37.6152 10.8274 37.6152C10.698 37.6152 10.5676 37.6237 10.4374 37.6406C10.0215 36.9036 9.60821 36.173 9.23463 35.5127L9.19512 35.4429C8.82216 34.7836 8.4395 34.1071 8.05734 33.43C8.58928 32.9256 8.97548 32.2386 9.1614 31.4541C9.32782 30.752 9.33976 29.9802 9.1978 29.0945Z" fill="white"/>
<path d="M42.7617 19.7965C41.9709 19.2976 41.08 19.0322 40.2355 18.8033C38.8626 18.4313 37.4682 18.1046 36.067 17.8258C35.9328 17.3711 35.6301 16.7543 35.5333 16.5621C35.496 16.488 35.4277 16.4346 35.3469 16.4161C35.1046 16.3609 34.8616 16.3077 34.6181 16.2564C34.6178 16.2556 34.6178 16.2548 34.6175 16.254C34.6178 16.2548 34.6178 16.2557 34.6181 16.2564C34.8616 16.3077 35.1046 16.3609 35.3469 16.4161C35.4277 16.4346 35.496 16.488 35.5333 16.5621C35.6301 16.7543 35.9328 17.3711 36.067 17.8258C37.4684 18.1046 38.8626 18.4313 40.2355 18.8034C41.08 19.0324 41.9709 19.2977 42.7617 19.7965C43.5646 20.3031 44.4271 21.529 44.6449 22.4736C44.4271 21.529 43.5646 20.303 42.7617 19.7965Z" fill="white"/>
<path d="M34.9417 48.3954C35.5465 48.9484 36.0733 49.7419 36.283 50.4795C36.2912 50.5079 36.2945 50.5371 36.2935 50.566C36.2945 50.5371 36.2912 50.5079 36.283 50.4794C36.0733 49.7419 35.5465 48.9484 34.9417 48.3952C34.7117 47.8712 34.4934 47.3389 34.2871 46.7986C34.4934 47.3389 34.7117 47.8712 34.9417 48.3954Z" fill="white"/>
<path d="M14.5355 46.6364C14.5582 46.6779 14.5697 46.7236 14.5698 46.7695C14.5697 46.7236 14.5582 46.6777 14.5355 46.6363C14.5248 46.6168 13.5877 44.9089 12.9117 43.75C13.5877 44.9089 14.5248 46.6168 14.5355 46.6364Z" fill="white"/>
<path d="M37.8742 42.0659C37.8812 42.0885 37.8848 42.1112 37.8861 42.1337C37.9174 42.17 37.9462 42.208 37.9707 42.249C37.9462 42.208 37.9174 42.1699 37.8861 42.1337C37.8848 42.1111 37.8812 42.0884 37.8742 42.0659C37.5019 40.8744 36.832 39.794 35.9336 38.9307C36.832 39.7941 37.5019 40.8746 37.8742 42.0659Z" fill="white"/>
<path d="M14.6254 48.3953C15.3666 46.7058 15.9856 44.9297 16.4777 43.0837C15.9856 44.9296 15.3666 46.7057 14.6254 48.3951C14.0207 48.9483 13.4938 49.7417 13.2841 50.4793C13.276 50.5078 13.2726 50.537 13.2736 50.5659C13.2726 50.537 13.276 50.5078 13.2841 50.4794C13.4938 49.7418 14.0207 48.9483 14.6254 48.3953Z" fill="white"/>
<path d="M36.0994 37.7447C36.1711 37.8708 36.2475 38.0237 36.2708 38.2008C36.2475 38.0236 36.1711 37.8708 36.0994 37.7447Z" fill="white"/>
<path d="M8.30425 19.0663C9.17891 18.6868 10.1288 18.4523 11.0474 18.2257L11.2914 18.1654C11.9901 17.9919 12.7042 17.8319 13.4235 17.6868C13.4259 17.679 13.4284 17.6712 13.4315 17.6636L13.8742 16.554C13.9085 16.4682 13.983 16.405 14.0732 16.3853C13.983 16.4049 13.9085 16.4682 13.8742 16.554L13.4315 17.6636C13.4284 17.6712 13.4259 17.679 13.4235 17.6868C12.7042 17.8319 11.9901 17.9919 11.2914 18.1654L11.0474 18.2257C10.1288 18.4524 9.17891 18.6867 8.30425 19.0661C7.67928 19.3373 6.81826 19.9755 6.45918 20.5741C6.20138 21.0039 6.00549 21.6352 6.00391 22.2275C6.0055 21.6352 6.20139 21.004 6.45918 20.5743C6.81826 19.9756 7.67928 19.3374 8.30425 19.0663Z" fill="white"/>
<path d="M15.198 35.7429C15.1956 35.7557 15.194 35.7686 15.1934 35.7816C15.194 35.7687 15.1956 35.7556 15.198 35.7429Z" fill="white"/>
<path d="M13.4676 37.7447C13.3959 37.8708 13.3194 38.0237 13.2962 38.2008C13.3194 38.0238 13.3959 37.871 13.4676 37.7447Z" fill="white"/>
<path d="M8.99598 39.3588L8.99595 39.3586C8.61746 39.8143 8.36747 40.4131 8.28353 41.08C8.36749 40.4131 8.61748 39.8143 8.99598 39.3588Z" fill="white"/>
<path d="M10.0125 38.6226C10.4543 38.4532 10.9333 38.4185 11.3646 38.5418C11.6997 38.6378 12.0328 38.8412 12.29 39.1149C12.6149 38.8878 12.9776 38.7189 13.3595 38.6163C12.9776 38.7189 12.6149 38.8876 12.29 39.1147C12.0328 38.8411 11.6997 38.6376 11.3646 38.5418C10.9333 38.4185 10.4543 38.4532 10.0125 38.6226Z" fill="white"/>
<path d="M1.14621 23.6207C2.48572 23.695 3.90487 24.2347 4.63154 24.5498C5.89993 25.0999 6.89476 25.9004 7.50842 26.8649C7.92455 27.5188 8.20993 28.3145 8.35666 29.2298C8.4186 29.6163 8.44759 29.9753 8.44359 30.3116C8.4476 29.9753 8.4186 29.6162 8.35666 29.2297C8.20993 28.3145 7.92455 27.5188 7.50842 26.8647C6.89476 25.9003 5.89993 25.0997 4.63154 24.5497C3.90487 24.2346 2.48572 23.6948 1.14621 23.6207Z" fill="white"/>
<path d="M42.7617 19.7962C41.9709 19.2974 41.0801 19.0321 40.2355 18.8031C38.8627 18.431 37.4683 18.1044 36.067 17.8257C35.9328 17.3709 35.6301 16.7541 35.5333 16.5619C35.4961 16.4878 35.4277 16.4343 35.347 16.4158C35.1047 16.3606 34.8616 16.3075 34.6181 16.2561C34.6179 16.2554 34.6178 16.2546 34.6175 16.2538C34.0116 14.0813 32.8357 12.3036 31.5905 10.4215C31.1512 9.75738 30.6973 9.07133 30.2733 8.36958C30.2722 8.3398 30.2714 8.31018 30.2711 8.28071C30.2624 7.36776 30.6933 6.5976 31.6168 5.86861C32.2057 5.40376 32.7093 5.0827 33.3985 4.91878C34.6931 4.61084 35.3742 4.80776 35.58 5.09475C36.4252 6.27315 36.8052 7.26739 36.8031 8.30224C36.8031 8.33564 36.8026 8.36909 36.8017 8.40257C36.7996 8.48458 36.7982 8.56814 36.7981 8.65285C36.7969 9.24584 36.8565 9.89443 37.1557 10.4503C37.1917 10.5171 37.2532 10.5662 37.3262 10.5865C37.3991 10.6067 37.4772 10.5962 37.5422 10.5575C38.5117 9.9802 39.1132 8.80594 39.1119 7.49293C39.1119 7.49291 39.1119 7.49294 39.1119 7.49293C39.1111 6.71589 38.9149 5.94099 38.5287 5.18979C38.174 4.49979 37.6642 3.85432 37.0542 3.3231C36.0049 2.40905 34.6396 1.74695 32.8802 1.29898C31.0377 0.829914 29.3107 0.730682 27.7471 1.00415C26.1287 1.28717 24.5648 1.98758 23.0987 3.08596C21.7923 4.0646 20.5764 5.3651 19.5825 6.84685C17.6838 9.67755 16.5904 12.9353 15.5369 16.0894C15.0479 16.1808 14.56 16.2792 14.0735 16.3853C13.9833 16.4049 13.9088 16.4681 13.8745 16.5539L13.4318 17.6634C13.4287 17.6712 13.4262 17.6789 13.4239 17.6867C12.7045 17.8318 11.9903 17.9918 11.2917 18.1652L11.0477 18.2256C10.1291 18.4523 9.17919 18.6867 8.30453 19.0661C7.67954 19.3373 6.81854 19.9755 6.45946 20.5741C6.20167 21.0039 6.00577 21.6351 6.00418 22.2275C6.00356 22.4593 6.03269 22.6852 6.09953 22.8907C6.34897 23.658 6.98839 24.2093 7.58095 24.6474C8.76258 25.5212 10.0531 26.2411 11.4166 26.7874C11.4358 26.795 11.4554 26.8002 11.475 26.8035C11.4893 27.5104 11.5845 28.221 11.7903 28.9343C12.1999 30.354 13.0449 31.6943 14.234 32.8104C14.8027 33.344 15.4437 33.8218 16.1359 34.2327C15.6592 34.6037 15.3122 35.1539 15.1985 35.7431C15.1959 35.7559 15.1943 35.7688 15.1937 35.7818C15.1917 35.8205 15.198 35.8595 15.212 35.8961C15.243 35.9765 15.2759 36.0564 15.3099 36.1357C14.5422 36.4457 13.8771 37.0245 13.4678 37.7445C13.3962 37.8706 13.3196 38.0235 13.2964 38.2006C13.2916 38.2376 13.2894 38.2744 13.2898 38.3107C13.2908 38.4198 13.3151 38.5244 13.3596 38.6163C13.3596 38.6163 13.3596 38.6163 13.3597 38.6164C12.9778 38.719 12.6151 38.8878 12.2902 39.1149C12.033 38.8412 11.6999 38.6378 11.3648 38.5418C10.9335 38.4186 10.4545 38.4532 10.0127 38.6226C9.5043 37.7204 8.99094 36.8128 8.49345 35.9335C7.98802 35.04 7.46611 34.1174 6.94988 33.2012C6.94986 33.2013 6.94989 33.2012 6.94988 33.2012C7.04008 33.1453 7.13041 33.0849 7.22116 33.0188C7.76185 32.6251 8.15653 31.9994 8.33254 31.257C8.4026 30.9614 8.4396 30.6478 8.44359 30.3115C8.44759 29.9752 8.4186 29.6163 8.35666 29.2298C8.20993 28.3145 7.92455 27.5187 7.50842 26.8648C6.89476 25.9004 5.89993 25.0998 4.63154 24.5497C3.90487 24.2345 2.48572 23.6948 1.14621 23.6207C1.03344 23.6151 0.928126 23.6772 0.879756 23.7795C0.861634 23.8178 0.85288 23.8588 0.853029 23.8995C0.85328 23.9674 0.878296 24.0345 0.925992 24.0866C1.50868 24.7237 1.82448 25.385 1.91981 26.1675C1.94096 26.3411 1.95246 26.5199 1.95413 26.7058C1.95917 27.2637 1.87588 27.8853 1.69993 28.6192C1.67781 28.7115 1.65484 28.8039 1.63176 28.8965C1.50938 29.3883 1.38388 29.8927 1.3768 30.408C1.37443 30.5797 1.38522 30.7527 1.41368 30.9269C1.54508 31.7311 2.07531 32.4963 2.83202 32.9735C3.53294 33.4155 4.47709 33.6883 5.30272 33.6883C5.31144 33.6883 5.32016 33.6883 5.32884 33.6883C5.54228 33.6867 5.7487 33.664 5.95099 33.6192C5.95173 33.6208 5.9526 33.6224 5.95334 33.6239C5.95599 33.6295 5.95858 33.6352 5.96172 33.6406C7.03512 35.5022 8.05559 37.4254 8.99629 39.3582C8.61779 39.8138 8.36782 40.4127 8.28387 41.0796C8.27781 41.1277 8.27436 41.1755 8.27329 41.2232C8.25726 41.9378 8.77864 42.5959 9.13113 43.0407C9.62284 43.6614 10.2886 44.0303 10.9578 44.0529C10.978 44.0536 10.9983 44.0538 11.0187 44.0538C11.1998 44.0538 11.3803 44.0265 11.5555 43.9758L13.3765 47.2585C13.4176 47.3326 13.4903 47.3838 13.5737 47.3978C13.6074 47.4034 13.6416 47.406 13.6765 47.406C14.0151 47.406 14.4005 47.1549 14.5366 46.9027C14.5591 46.861 14.5703 46.8152 14.5701 46.7693C14.5699 46.7235 14.5584 46.6777 14.5357 46.6363C14.525 46.6166 13.5879 44.9088 12.9119 43.7498C12.9119 43.7498 12.9119 43.7498 12.9119 43.7498C14.2176 43.6052 15.4497 42.8372 16.1515 41.7242C16.3354 42.1283 16.433 42.5408 16.46 43.0011C16.4617 43.0302 16.4679 43.0579 16.4778 43.0838C15.9855 44.9298 15.3665 46.7058 14.6254 48.3953C14.0207 48.9483 13.4939 49.7418 13.2841 50.4795C13.276 50.5078 13.2725 50.5371 13.2736 50.5659C13.2754 50.6142 13.2897 50.6616 13.3158 50.7035C13.3575 50.7703 13.4255 50.8162 13.503 50.8298C14.7101 51.0429 15.9868 51.1464 17.4839 51.1464C18.1588 51.1464 18.8788 51.1253 19.657 51.0838C20.7863 51.0237 21.9607 50.874 22.8996 50.1927C22.9163 50.1805 22.9311 50.1668 22.9442 50.152C22.9616 50.1558 22.9788 50.1602 22.9962 50.164C23.0808 50.1845 23.1662 50.2017 23.2525 50.2154C23.7595 50.3089 24.2745 50.3556 24.7897 50.3556C25.3318 50.3556 25.8738 50.3031 26.4067 50.1994C26.4241 50.1961 26.4413 50.1926 26.4587 50.1891C26.5142 50.1779 26.5697 50.1666 26.6249 50.1543C26.6377 50.1683 26.6518 50.1811 26.6676 50.1927C27.6064 50.874 28.781 51.0237 29.9102 51.0838C30.6887 51.1253 31.4083 51.1464 32.0832 51.1464C33.5803 51.1464 34.8572 51.0429 36.0642 50.8298C36.1416 50.8162 36.2097 50.7703 36.2515 50.7035C36.2776 50.6616 36.2918 50.6142 36.2937 50.5659C36.2947 50.5371 36.2912 50.5078 36.2831 50.4795C36.0733 49.7418 35.5466 48.9483 34.9418 48.3953C34.7119 47.8712 34.4935 47.3388 34.2873 46.7985C34.6288 46.9625 34.9926 47.0055 35.2776 47.0055C35.2899 47.0055 35.3021 47.0055 35.3141 47.0052C36.4689 46.9907 37.5862 46.2829 38.0945 45.2442C38.308 44.808 38.4107 44.3177 38.405 43.8287C38.3985 43.2742 38.2527 42.7212 37.971 42.249C37.9464 42.208 37.9176 42.1699 37.8863 42.1337C37.885 42.1112 37.8814 42.0885 37.8743 42.0659C37.5021 40.8744 36.8321 39.794 35.9337 38.9307C35.9337 38.9307 35.9338 38.9307 35.9338 38.9305C35.9835 38.8845 36.0331 38.8382 36.0819 38.7913C36.2115 38.6668 36.2819 38.4822 36.2773 38.2855C36.2767 38.2574 36.2746 38.229 36.2708 38.2006C36.2475 38.0235 36.171 37.8706 36.0994 37.7445C35.6901 37.0245 35.025 36.4458 34.2573 36.1358C34.2913 36.0564 34.3243 35.9767 34.3553 35.8961C34.3693 35.8595 34.3755 35.8205 34.3736 35.7818C34.3729 35.7688 34.3714 35.7559 34.3689 35.7431C34.2612 35.1851 33.9843 34.7103 33.5747 34.3666C34.6553 33.8015 35.5886 33.0576 36.3587 32.1431C37.4354 30.8644 38.1163 29.1829 38.3024 27.3642C39.5374 27.2166 40.9531 26.6852 42.5127 25.7831C43.0598 25.4667 43.7449 25.0318 44.1892 24.4728C44.5429 24.0281 44.7176 23.5384 44.7115 23.0119C44.7094 22.8364 44.6873 22.6567 44.6449 22.4733C44.4271 21.5287 43.5646 20.3028 42.7617 19.7962ZM5.32494 33.1316C5.31771 33.1316 5.31051 33.1316 5.3032 33.1316C4.58719 33.1316 3.73594 32.8858 3.12811 32.5024C2.50403 32.1088 2.06815 31.4862 1.96208 30.837C1.86677 30.2537 2.01453 29.6598 2.17097 29.0312C2.19441 28.937 2.21782 28.8429 2.24028 28.7492C2.49085 27.7041 2.56431 26.8622 2.47139 26.1002C2.38943 25.4273 2.15743 24.8167 1.76637 24.2492C1.76614 24.249 1.76593 24.2486 1.76569 24.2482C1.84078 24.2603 1.91572 24.2737 1.99042 24.2878C2.9573 24.4723 3.87817 24.8296 4.41078 25.0606C5.57693 25.5663 6.48601 26.2936 7.03983 27.164C7.04553 27.1729 7.05096 27.1823 7.0566 27.1913C7.10826 27.2738 7.15758 27.3591 7.20471 27.4467C7.49135 27.9802 7.69413 28.6077 7.80797 29.3181C7.9201 30.0175 7.91482 30.6096 7.79188 31.1283C7.64651 31.7415 7.32778 32.2529 6.8944 32.5686C6.3722 32.9488 5.87348 33.1277 5.32494 33.1316ZM20.0439 7.15734C21.0031 5.72701 22.1746 4.4733 23.4314 3.53179C24.827 2.48627 26.3112 1.82036 27.8426 1.55254C29.3285 1.29269 30.9773 1.38889 32.7433 1.83852C33.1363 1.93862 33.5081 2.04975 33.8601 2.17206C33.9622 2.20755 34.0626 2.24399 34.1614 2.28141C34.3886 2.36748 34.6069 2.45865 34.8166 2.55507C34.8479 2.56947 34.879 2.58403 34.9099 2.59868C35.5922 2.92144 36.1823 3.30121 36.6897 3.74318C37.8571 4.76009 38.5549 6.16205 38.5562 7.49348C38.5571 8.4677 38.1581 9.37479 37.5187 9.89626C37.4783 9.7796 37.4472 9.65844 37.4236 9.53482C37.4155 9.49273 37.4085 9.45028 37.4022 9.4077C37.3523 9.07743 37.3491 8.73487 37.3573 8.41693C37.3765 7.67166 37.2598 6.48276 36.0314 4.76995C35.8857 4.56678 35.6723 4.41856 35.3947 4.32553C35.3358 4.30578 35.274 4.28849 35.2093 4.27376C35.0532 4.23826 34.8806 4.21699 34.6912 4.21085C34.1657 4.19371 33.6286 4.29187 33.2701 4.37714C32.4815 4.5647 31.9213 4.91958 31.2729 5.43136C30.1567 6.31242 29.6494 7.30671 29.7221 8.47103C29.7249 8.51564 29.7384 8.55893 29.7614 8.59721C30.2018 9.33003 30.6722 10.0412 31.1272 10.729C32.2939 12.4924 33.3982 14.1625 34.0019 16.1305C33.8919 16.1088 33.7817 16.0876 33.6714 16.0666C33.3593 16.0076 33.0464 15.9516 32.7326 15.8989C32.7063 15.8944 32.6799 15.8902 32.6535 15.8858C28.7551 15.2375 24.7292 15.0749 20.7152 15.3986C20.6905 15.4007 20.6659 15.4027 20.6411 15.4048C19.2545 15.5187 17.8696 15.6913 16.4918 15.9212C16.3813 15.9396 16.2709 15.9577 16.1606 15.9768C17.1732 12.9486 18.2442 9.84028 20.0439 7.15734ZM14.3358 16.898C14.9856 16.7584 15.6379 16.6324 16.2919 16.5193C17.317 16.342 18.3462 16.1968 19.3774 16.0845C19.4023 16.0819 19.4271 16.079 19.452 16.0764C21.2079 15.8878 22.9689 15.7934 24.7237 15.7934C27.311 15.7934 29.8847 15.9989 32.4047 16.4091C32.4371 16.4144 32.4696 16.4195 32.502 16.4249C32.9496 16.4988 33.3956 16.5791 33.8396 16.6659C34.2599 16.748 34.6785 16.8359 35.0952 16.9296C35.2127 17.1697 35.3417 17.4545 35.4374 17.7037C35.3226 17.6822 35.2079 17.6614 35.093 17.6404C34.5202 17.5358 33.9469 17.4388 33.3738 17.3508C33.1805 17.3211 32.987 17.2927 32.7935 17.2647C32.768 17.2611 32.7426 17.2574 32.717 17.2538C28.6317 16.6709 24.547 16.5027 20.565 16.7543C20.1835 16.7785 19.8025 16.8067 19.4224 16.8387C19.3976 16.8408 19.3728 16.8429 19.348 16.845C17.6755 16.988 16.0219 17.2067 14.4157 17.4972C14.3855 17.5026 14.355 17.5077 14.3249 17.5133C14.2402 17.5288 14.1558 17.5447 14.0713 17.5606L14.3358 16.898ZM11.499 25.8984C11.4916 26.0029 11.4856 26.1076 11.4814 26.2124C10.2141 25.6911 9.01343 25.0147 7.91097 24.1996C7.59522 23.9661 7.28427 23.7142 7.03877 23.425C7.03685 23.4183 7.03496 23.4115 7.03249 23.4048C6.91362 23.0812 6.87779 22.8248 6.926 22.6705C6.94068 22.6236 6.96284 22.5856 6.99321 22.5587C7.27956 22.304 7.51442 22.1462 8.07465 21.9381C9.08048 21.5642 10.1831 21.412 11.2495 21.2648C11.6122 21.2146 11.9873 21.1629 12.3545 21.1031C12.4335 21.0902 12.5127 21.0778 12.5917 21.0651C12.101 22.6478 11.6146 24.2625 11.499 25.8984ZM16.257 34.8736C16.2741 34.8555 16.2917 34.8381 16.3093 34.8208C16.4218 34.7101 16.5464 34.6136 16.6794 34.5357C16.7708 34.5836 16.8632 34.6299 16.9561 34.6754C17.3589 34.8731 17.7747 35.0492 18.2009 35.2006C19.9108 35.8071 21.8276 36.1389 23.9258 36.1955C23.5226 36.6354 23.088 37.0431 22.6262 37.4152C22.5974 37.4385 22.5682 37.4614 22.5391 37.4844C21.4982 38.3073 20.3226 38.953 19.0601 39.3888C17.8768 38.7758 16.8804 37.8246 16.2128 36.6914C16.039 36.3964 15.8872 36.0894 15.7605 35.7724C15.8398 35.4431 16.0181 35.1265 16.257 34.8736ZM24.5938 36.281C24.6139 36.2576 24.6292 36.2317 24.6404 36.2046C24.7352 36.2043 24.8305 36.2038 24.9261 36.2025C24.9373 36.2303 24.9528 36.2569 24.9735 36.281C25.3366 36.7031 25.7265 37.0988 26.1402 37.4661C26.1506 37.5086 26.171 37.5494 26.202 37.5844C26.7667 38.2228 26.9509 39.1817 26.6605 39.9707C26.3694 40.7617 25.5888 41.3692 24.7622 41.4477C24.6982 41.4538 24.6343 41.4568 24.5701 41.4568C23.7914 41.4568 23.0234 41.0148 22.6551 40.3357C22.2556 39.5991 22.3587 38.6106 22.9003 37.9853C22.9328 37.9477 22.9533 37.9039 22.9625 37.8586C23.5509 37.3855 24.0974 36.8579 24.5938 36.281ZM12.5107 42.4135C12.4305 42.6242 12.3079 42.8142 12.1574 42.9746C11.9275 43.2195 11.6321 43.3946 11.3194 43.464C11.2414 43.4813 11.1624 43.492 11.0831 43.4956C11.0476 43.4973 11.012 43.4977 10.9765 43.4965C10.478 43.4796 9.95083 43.18 9.5664 42.6947C9.22925 42.2692 8.76758 41.6864 8.83523 41.1492C8.91892 40.4842 9.19224 39.9058 9.60486 39.5206C9.94743 39.2009 10.3947 39.0237 10.821 39.0237C10.9548 39.0237 11.0865 39.0412 11.2122 39.0772C11.7787 39.2393 12.1531 39.7289 12.204 40.1436C12.1886 40.1726 12.1788 40.2041 12.1743 40.2364C12.1735 40.2424 12.1725 40.2482 12.1721 40.2542C11.8184 40.6572 11.2229 40.8535 10.703 40.7247C10.554 40.6879 10.4034 40.7789 10.3666 40.9281C10.3297 41.0774 10.4206 41.2281 10.5696 41.2652C10.6109 41.2753 10.6524 41.284 10.6941 41.2915C10.7322 41.2982 10.7706 41.3037 10.809 41.3081C11.3888 41.375 11.9894 41.1793 12.4232 40.7902C12.6648 41.318 12.7016 41.9116 12.5107 42.4135ZM15.8305 41.1684C15.2301 42.3296 13.9867 43.1289 12.6858 43.2105C12.7657 43.1107 12.8372 43.0038 12.8996 42.8911C12.9492 42.8015 12.9931 42.7083 13.03 42.6117C13.2221 42.1068 13.2354 41.5329 13.0844 40.9879C13.0778 40.9641 13.0707 40.9403 13.0635 40.9165C12.9934 40.6867 12.8939 40.4628 12.7659 40.2525C12.7682 40.1168 12.7501 39.9848 12.7161 39.8579C12.6896 39.759 12.6536 39.6629 12.6086 39.571C12.9656 39.3216 13.3771 39.1563 13.8078 39.09C13.8912 39.1652 13.9747 39.2391 14.0579 39.3125C14.1107 39.359 14.1635 39.4055 14.2158 39.4513C14.2166 39.452 14.2173 39.4526 14.2181 39.4533C14.2404 39.4729 14.2624 39.4921 14.2846 39.5116C14.7386 39.9097 15.1667 40.291 15.5276 40.7399C15.5731 40.7966 15.6162 40.8526 15.6581 40.9085C15.7212 40.9927 15.7808 41.0762 15.8358 41.1592C15.8341 41.1624 15.8321 41.1652 15.8305 41.1684ZM15.9739 40.4078C15.9693 40.4021 15.9649 40.3964 15.9604 40.3907C15.5507 39.8812 15.0581 39.4496 14.5817 39.0323C14.5481 39.0028 14.5139 38.9729 14.4801 38.9431C14.4712 38.9353 14.4624 38.9275 14.4536 38.9199C14.4426 38.9101 14.4315 38.9005 14.4204 38.8906C14.2344 38.7269 14.047 38.5595 13.87 38.3895C13.8537 38.3739 13.8402 38.3279 13.8474 38.2733C13.8581 38.1916 13.9034 38.1033 13.9507 38.02C14.3044 37.3978 14.8827 36.9003 15.5489 36.6401C15.5949 36.7282 15.6431 36.8152 15.6926 36.9015C15.7621 37.0225 15.8346 37.1419 15.9108 37.259C15.9244 37.2799 15.9383 37.3007 15.9522 37.3216C16.3441 37.9105 16.8202 38.4464 17.3614 38.9091C17.3546 38.9268 17.3496 38.9455 17.3464 38.965C17.2211 39.7603 17.0733 40.5457 16.9043 41.3204C16.8673 41.4901 16.8296 41.6594 16.7905 41.828C16.6206 41.3448 16.3534 40.883 15.9739 40.4078ZM19.6274 50.528C17.8064 50.6251 16.3149 50.6086 14.9702 50.4713C14.9446 50.4687 14.9191 50.466 14.8936 50.4632C14.5617 50.4281 14.2383 50.3856 13.9213 50.3354C14.1376 49.8019 14.5235 49.2534 14.9522 48.8486C14.981 48.8361 15.0081 48.8188 15.032 48.7964C15.1816 48.6565 15.3513 48.5358 15.5372 48.4344C16.066 48.1456 16.7272 48.0158 17.4427 48.0663C17.5052 48.0707 17.5678 48.0764 17.631 48.0836C17.6544 48.0862 17.6777 48.0888 17.7012 48.0918C18.6924 48.2197 19.6353 48.6427 20.5474 49.0518C20.8051 49.1674 21.0614 49.3037 21.3327 49.4479C21.5364 49.5561 21.7418 49.6651 21.9502 49.7666C22.0628 49.8214 22.1764 49.8742 22.2911 49.9233C21.5125 50.3669 20.5561 50.4784 19.6274 50.528ZM23.6052 43.3223C23.605 43.3475 23.6049 43.3729 23.6047 43.3981C23.5992 44.1989 23.5936 45.0121 23.5882 45.8257C23.5799 47.0323 23.5717 48.2384 23.5635 49.4028C23.5629 49.4987 23.5621 49.595 23.5614 49.6902C23.4805 49.6848 23.3996 49.6748 23.319 49.6611C23.2691 49.6516 23.2194 49.6416 23.1697 49.6312C22.9365 49.578 22.7049 49.495 22.4755 49.3957C22.1778 49.2668 21.8835 49.1104 21.5932 48.9561C21.3257 48.814 21.0492 48.667 20.7745 48.5438C19.9354 48.1673 19.071 47.78 18.1404 47.5997C18.1161 47.595 18.0916 47.5907 18.0671 47.5863C17.9695 47.5686 17.8714 47.5525 17.7722 47.5396C17.237 47.4706 16.7202 47.49 16.2452 47.5909C16.2134 47.5975 16.1819 47.6049 16.1505 47.6123C16.045 47.6375 15.9421 47.6672 15.8412 47.7005C15.7274 47.738 15.6166 47.7804 15.5094 47.8283C15.4958 47.8285 15.4822 47.8297 15.4684 47.832C16.1854 46.0849 16.7761 44.2522 17.2368 42.3515C17.3416 41.9183 17.44 41.4816 17.5314 41.0416C17.5377 41.0108 17.5443 40.98 17.5507 40.949C17.6626 40.4037 17.7639 39.853 17.8549 39.2978C18.1896 39.5397 18.5442 39.7549 18.9152 39.9393C18.9539 39.9586 18.9962 39.9683 19.0388 39.9683C19.0684 39.9683 19.0981 39.9636 19.1266 39.954C20.1302 39.6186 21.0823 39.157 21.9616 38.5841C21.7697 39.2458 21.8312 39.9827 22.1669 40.6016C22.4756 41.1707 23.0067 41.6075 23.6157 41.836C23.6122 42.3242 23.6087 42.8204 23.6052 43.3223ZM24.1166 49.7699C24.1172 49.6711 24.118 49.5715 24.1187 49.4721C24.1271 48.2874 24.1354 47.059 24.1437 45.8295C24.1527 44.5291 24.1615 43.2294 24.1703 41.9818C24.3039 42.0023 24.4389 42.0133 24.5742 42.0133C24.6544 42.0133 24.7347 42.0096 24.8148 42.002C25.0134 41.9831 25.2086 41.9411 25.397 41.8788C25.4057 43.1178 25.4146 44.4298 25.4233 45.7427C25.4317 47.0073 25.4401 48.2715 25.4486 49.4722C25.4492 49.5719 25.45 49.672 25.4506 49.7708C25.007 49.8078 24.5603 49.8076 24.1166 49.7699ZM26.0058 49.6902C26.0052 49.5953 26.0045 49.4993 26.0039 49.4037C25.9956 48.2224 25.9872 46.9808 25.9789 45.7389C25.9723 44.7461 25.9657 43.7537 25.9591 42.7928C25.9588 42.7575 25.9586 42.722 25.9583 42.6866C25.9558 42.3278 25.9534 41.9737 25.9509 41.6258C26.5067 41.2963 26.9552 40.7795 27.1819 40.1632C27.1909 40.1389 27.1992 40.1142 27.2075 40.0896C27.2155 40.0656 27.2231 40.0414 27.2305 40.0172C27.3951 39.4737 27.3871 38.877 27.2246 38.3254C28.2076 39.0192 29.2904 39.5696 30.4406 39.954C30.4691 39.9636 30.4989 39.9683 30.5285 39.9683C30.571 39.9683 30.6133 39.9586 30.652 39.9393C31.023 39.7549 31.3777 39.5397 31.7124 39.2978C31.7175 39.3292 31.7227 39.3607 31.7279 39.3922C31.734 39.4289 31.7399 39.4657 31.7461 39.5025C31.7726 39.6594 31.8002 39.816 31.8284 39.9722C31.8358 40.0132 31.8429 40.0544 31.8504 40.0953C32.1803 41.893 32.6232 43.638 33.174 45.3178C33.4544 46.1734 33.7625 47.0124 34.0988 47.832C34.0852 47.8297 34.0716 47.8285 34.058 47.8283C33.9508 47.7805 33.84 47.7379 33.7261 47.7003C33.2487 47.5426 32.716 47.4756 32.156 47.5068C32.1309 47.5082 32.1056 47.5096 32.0803 47.5114C31.9858 47.5182 31.8908 47.5273 31.795 47.5396C30.7225 47.6781 29.7415 48.1181 28.7928 48.5438C28.518 48.667 28.2415 48.814 27.9742 48.9561C27.6828 49.111 27.3876 49.2676 27.089 49.3967C26.7324 49.551 26.371 49.6661 26.0058 49.6902ZM34.5353 48.7964C34.5593 48.8188 34.5863 48.8361 34.6149 48.8485C35.0437 49.2533 35.4296 49.8018 35.646 50.3354C35.3629 50.3802 35.075 50.4189 34.7803 50.4516C34.7547 50.4545 34.729 50.4574 34.7033 50.4602C33.331 50.6077 31.809 50.6275 29.9398 50.528C29.0112 50.4784 28.0546 50.3669 27.2761 49.9233C27.3909 49.8742 27.5044 49.8214 27.6172 49.7666C27.8256 49.6651 28.031 49.5561 28.2346 49.4479C28.5058 49.3036 28.7621 49.1674 29.0199 49.0518C29.9319 48.6427 30.8748 48.2197 31.866 48.0918C31.9437 48.0818 32.0209 48.0741 32.0976 48.0682C32.1619 48.0633 32.2257 48.0598 32.2891 48.0577C32.9417 48.0365 33.5425 48.1683 34.0308 48.4352C34.2163 48.5366 34.3859 48.6567 34.5353 48.7964ZM37.494 42.5346C37.9305 43.2659 37.9703 44.2332 37.5955 44.9992C37.3898 45.4195 37.0629 45.7736 36.6709 46.0268C36.6368 46.0488 36.6023 46.0703 36.5672 46.0907C36.1856 46.3136 35.7497 46.443 35.3071 46.4487C34.8843 46.4539 34.5179 46.3424 34.2764 46.1342C34.1505 46.0258 34.0403 45.8698 33.949 45.6896C33.7199 45.2383 33.6096 44.6349 33.6718 44.2458C33.7509 43.7504 34.0882 43.2621 34.5691 42.9176C34.5899 42.9027 34.6109 42.8881 34.6322 42.8738C34.7434 42.7989 34.8616 42.7316 34.9857 42.6735C35.4093 42.4751 36.1683 42.2995 36.748 42.2995C36.8535 42.2995 36.9528 42.3055 37.0432 42.3179C37.2586 42.348 37.4231 42.4158 37.494 42.5346ZM37.1848 41.7804C37.0815 41.7618 36.9698 41.7505 36.8505 41.7457C36.6971 41.7396 36.531 41.7446 36.3519 41.7622C35.7167 41.8241 35.0764 42.0165 34.7503 42.1691C34.6116 42.2341 34.4687 42.3146 34.3276 42.4092C34.3073 42.423 34.2869 42.437 34.2665 42.4513C33.8528 42.7428 33.4636 43.1594 33.2547 43.6836C33.1823 43.4288 33.1123 43.1726 33.0448 42.915C33.0507 42.895 33.0547 42.8743 33.056 42.8526C33.1065 41.9883 33.4566 41.4697 33.9881 40.8041C34.0051 40.7829 34.0223 40.7614 34.0397 40.7399C34.0548 40.721 34.0709 40.7028 34.0864 40.6842C34.4409 40.2554 34.8561 39.8856 35.2956 39.5002C35.3143 39.4839 35.3326 39.4678 35.3513 39.4514C35.4069 39.4027 35.463 39.3534 35.5193 39.3039C36.2494 39.9972 36.8187 40.8444 37.1848 41.7804ZM34.0184 36.6401C34.6845 36.9003 35.2629 37.3978 35.6165 38.02C35.6639 38.1033 35.7092 38.1916 35.7199 38.2733C35.7271 38.3277 35.7136 38.3739 35.6972 38.3895C35.5336 38.5466 35.361 38.7016 35.1889 38.8534C35.17 38.8703 35.151 38.887 35.1321 38.9036C35.083 38.9468 35.034 38.9898 34.9854 39.0324C34.9548 39.0592 34.9239 39.0864 34.8932 39.1134C34.4459 39.5058 33.9901 39.9141 33.6069 40.3907C33.2553 40.828 32.9514 41.2339 32.7504 41.714C32.5443 40.812 32.3674 39.8951 32.2208 38.965C32.2177 38.9455 32.2126 38.9268 32.2059 38.9091C32.7304 38.4607 33.1936 37.9434 33.5785 37.3759C33.5925 37.3553 33.6065 37.3348 33.6202 37.314C33.7097 37.1793 33.7941 37.0415 33.8745 36.9015C33.924 36.8152 33.9723 36.7282 34.0184 36.6401ZM33.8069 35.7718C33.6802 36.089 33.5284 36.3963 33.3545 36.6914C32.6868 37.8246 31.6904 38.7758 30.5072 39.3888C29.1884 38.9336 27.9646 38.2495 26.8901 37.3735C26.8638 37.3521 26.8376 37.3307 26.8116 37.3092C26.3934 36.9623 25.9985 36.5861 25.63 36.1828C26.1835 36.1601 26.7481 36.1201 27.3235 36.0619C28.9706 35.8959 30.6843 35.5058 32.2795 34.9338C32.4289 34.8801 32.5757 34.8229 32.7204 34.7632C32.8168 34.7236 32.9125 34.6829 33.007 34.6409C33.0894 34.6914 33.1662 34.7473 33.2374 34.8084C33.2568 34.825 33.2758 34.8418 33.2943 34.8592C33.5482 35.0974 33.7224 35.4061 33.8069 35.7718ZM37.7963 26.5648C37.7941 26.6532 37.7911 26.7415 37.7865 26.8293C37.69 28.7203 37.0321 30.48 35.9339 31.7842C34.9661 32.9335 33.7217 33.7976 32.2351 34.356C32.1874 34.3739 32.1403 34.3924 32.0922 34.4096C30.5388 34.9667 28.8706 35.3466 27.2678 35.5082C23.8908 35.8486 20.9028 35.5686 18.3864 34.6758C18.0668 34.5624 17.7534 34.4341 17.4473 34.2932C16.3915 33.8075 15.4249 33.1652 14.614 32.404C13.4978 31.3566 12.706 30.1033 12.3242 28.7797C12.058 27.8573 11.9865 26.9445 12.0419 26.0315C12.1414 24.3907 12.651 22.7488 13.1796 21.0462L13.1868 21.0229C13.1922 21.0056 13.1956 20.9883 13.1975 20.9712C14.4297 20.7859 15.6692 20.6341 16.9133 20.515C15.8921 20.9457 14.9006 21.5286 14.227 22.1969C13.4551 22.9624 12.9481 24.1542 12.7994 25.5527C12.6719 26.7517 12.8168 27.9866 13.187 28.8562C13.6294 29.8953 14.3313 30.8371 15.2732 31.6552C16.1195 32.3905 17.1597 33.0146 18.2816 33.46C20.6146 34.3866 23.1367 34.5428 25.0733 34.5753C25.1449 34.5764 25.2171 34.5771 25.29 34.5771C27.1805 34.5771 29.5087 34.1749 31.5696 33.4885C33.4118 32.8749 34.9683 31.6937 36.0711 30.0727C36.8336 28.9516 37.1343 27.447 36.9905 25.4729C36.9022 24.2596 36.4913 23.2758 35.6587 22.2827C35.2132 21.7514 34.3331 21.2526 33.6334 20.912C34.6761 21.0619 35.7146 21.2351 36.7475 21.4314C36.7485 21.4645 36.7553 21.498 36.7687 21.5305C37.4912 23.2575 37.8361 24.9497 37.7963 26.5648ZM19.5868 20.3257C19.6122 20.3226 19.6364 20.3158 19.6591 20.3065C21.8805 20.1815 24.111 20.1615 26.3367 20.2477C28.0226 20.313 29.7064 20.4393 31.3823 20.6255C32.4153 20.9021 34.5789 21.8605 35.2332 22.6409C35.9788 23.5301 36.3497 24.408 36.4338 25.4829C36.4346 25.4931 36.4355 25.5032 36.4363 25.5134C36.4381 25.5386 36.4395 25.5634 36.4412 25.5885C36.5629 27.3948 36.2916 28.7598 35.6118 29.7592C34.5783 31.2786 33.1199 32.3854 31.3943 32.9601C29.31 33.6543 26.9504 34.0498 25.0826 34.0187C23.1931 33.9869 20.7359 33.836 18.4864 32.9426C16.226 32.0449 14.4808 30.4758 13.6982 28.6378C13.3684 27.8635 13.2358 26.7039 13.352 25.6118C13.3973 25.186 13.478 24.7828 13.5906 24.409C13.6009 24.3751 13.6114 24.3413 13.6221 24.3079C13.8468 23.61 14.1856 23.0213 14.6179 22.5925C15.81 21.4102 18.0804 20.5115 19.5868 20.3257ZM42.2348 25.3011C40.7865 26.1388 39.4789 26.6415 38.3442 26.7975C38.3487 26.6973 38.3517 26.5968 38.3535 26.496C38.3805 24.9022 38.0534 23.2428 37.3788 21.5545C38.3285 21.744 39.2731 21.9529 40.2114 22.1815C40.9389 22.3586 41.641 22.5477 42.2328 22.9084C42.7679 23.2347 43.1515 23.6802 43.3224 24.1617C43.3576 24.2605 43.3843 24.3606 43.401 24.4617C43.4021 24.4689 43.4038 24.4761 43.4055 24.4832C43.1192 24.7402 42.737 25.0105 42.2348 25.3011ZM43.8522 23.9917C43.8127 23.8785 43.7641 23.7672 43.7073 23.6584C43.4786 23.2195 43.1129 22.8218 42.6418 22.5096C42.6139 22.491 42.5855 22.4728 42.5568 22.4548C42.5451 22.4476 42.5334 22.44 42.5216 22.4329C41.8619 22.0305 41.1145 21.8285 40.3428 21.6405C37.4373 20.9328 34.4728 20.4102 31.4832 20.0765C31.4247 20.0613 31.3692 20.048 31.3175 20.0371C31.2698 20.027 31.2225 20.0297 31.179 20.0431C29.5772 19.8712 27.9686 19.7537 26.3583 19.6914C24.2682 19.6104 22.1738 19.6225 20.0867 19.7263C20.0466 19.7284 20.0065 19.7304 19.9664 19.7325C17.3808 19.8655 14.8064 20.1394 12.2653 20.5536C11.9047 20.6124 11.5331 20.6637 11.1736 20.7134C10.0776 20.8647 8.94431 21.0211 7.88139 21.4161C7.41079 21.591 7.12618 21.7467 6.87837 21.9329C6.79134 21.9982 6.70872 22.0672 6.62432 22.1423C6.60057 22.1634 6.57884 22.1859 6.55815 22.2093C6.5626 21.7315 6.72767 21.2078 6.93578 20.8609C7.19696 20.4254 7.92487 19.8376 8.52536 19.577C9.35729 19.216 10.2842 18.9874 11.1806 18.7661L11.4253 18.7056C12.3275 18.4817 13.2557 18.2802 14.1877 18.1052C14.2666 18.0904 14.3455 18.0754 14.4245 18.0608C16.0263 17.7682 17.6768 17.5481 19.3467 17.404C19.3714 17.4017 19.396 17.3994 19.4207 17.3973C19.813 17.364 20.2062 17.3348 20.6001 17.31C24.7555 17.0471 29.0249 17.246 33.2896 17.9011C33.9605 18.004 34.6318 18.1188 35.3021 18.2447C36.8012 18.5261 38.2949 18.8637 39.765 19.2536C39.8458 19.2749 39.9265 19.2965 40.0071 19.3182C40.0347 19.3257 40.0626 19.333 40.0904 19.3404C40.8943 19.5584 41.7399 19.8095 42.4656 20.2673C43.1395 20.6924 43.9202 21.8037 44.1035 22.5986C44.2112 23.0657 44.1887 23.512 43.8522 23.9917Z" fill="#00334F"/>
<path d="M24.9278 30.5195C24.9497 30.52 24.9714 30.5204 24.9932 30.5204C25.714 30.5204 26.4337 30.2119 26.9296 29.6877C27.0351 29.576 27.0303 29.3998 26.919 29.2941C26.8075 29.1885 26.6316 29.1931 26.5261 29.3048C26.1219 29.7322 25.53 29.9781 24.9422 29.963C24.3546 29.9478 23.776 29.6711 23.3945 29.2232C23.2948 29.1063 23.1195 29.0923 23.0027 29.1921C22.8861 29.2919 22.8722 29.4676 22.9717 29.5846C23.4539 30.1506 24.1851 30.5002 24.9278 30.5195Z" fill="#00334F"/>
<path d="M15.9107 37.2589C15.8344 37.1419 15.7619 37.0225 15.6924 36.9016C15.6429 36.8152 15.5947 36.7283 15.5487 36.6401C14.8825 36.9003 14.3042 37.3979 13.9506 38.02C13.9032 38.1033 13.8579 38.1917 13.8472 38.2732C13.84 38.3278 13.8535 38.3739 13.8698 38.3895C14.0468 38.5596 14.2341 38.727 14.4201 38.8907C14.4228 38.8833 14.4259 38.8761 14.4287 38.8689C14.6903 38.1679 15.2342 37.5767 15.9107 37.2589Z" fill="#02BBFF"/>
<path d="M19.0598 39.3886C20.3224 38.9528 21.4978 38.307 22.5387 37.4841C20.3382 37.3546 18.1693 36.4875 16.4809 35.067C16.4053 35.0034 16.3303 34.9391 16.2568 34.8733C16.0177 35.1261 15.8395 35.4428 15.7603 35.7722C15.8869 36.0892 16.0387 36.3962 16.2125 36.6912C16.88 37.8244 17.8764 38.7756 19.0598 39.3886Z" fill="#02BBFF"/>
<path d="M37.2472 5.20833C36.7665 4.34841 36.0363 3.68017 35.2551 3.10853C35.0093 2.92868 34.7585 2.7583 34.5089 2.59464C34.349 2.57756 34.1905 2.56304 34.0335 2.55083C31.7707 2.37503 29.8061 2.70665 28.1851 3.54082C27.1145 4.09171 26.0852 4.91462 24.9458 6.13062C23.6444 7.51937 22.6303 8.95227 21.9315 10.3895C21.1319 12.0339 20.7117 13.7653 20.7149 15.399C24.7289 15.0753 28.7548 15.2378 32.6531 15.8862C32.2758 14.3439 31.316 12.9989 30.3858 11.6958C30.2939 11.567 30.2022 11.4385 30.1113 11.3102C29.4936 10.4384 28.8035 9.41795 28.4305 8.33937C28.0115 7.12713 28.0635 6.0466 28.5895 5.03606C28.7393 4.74874 28.9063 4.59658 29.1005 4.57086C29.3352 4.53968 29.5419 4.7076 29.6422 4.88771C29.7086 5.00699 29.7692 5.16611 29.7813 5.31517C30.2988 4.37494 31.4011 3.65807 32.601 3.5015C33.3483 3.40396 34.1236 3.56157 34.7893 3.91932C35.0039 4.03467 35.2072 4.1707 35.3944 4.32588C35.672 4.41891 35.8854 4.56712 36.0311 4.7703C37.2595 6.48311 37.376 7.672 37.357 8.41726C37.3488 8.73521 37.352 9.07778 37.4019 9.40803C37.5032 9.18754 37.5856 8.95861 37.6501 8.72451C37.9713 7.55953 37.837 6.26357 37.2472 5.20833Z" fill="#02BBFF"/>
<path d="M14.4157 17.4973C16.0219 17.2069 17.6755 16.988 19.348 16.845C19.3728 16.8429 19.3976 16.8408 19.4223 16.8387C19.4281 16.5835 19.4395 16.329 19.452 16.0764C19.4271 16.0791 19.4022 16.0819 19.3774 16.0846C18.3462 16.1969 17.317 16.342 16.2918 16.5193C15.6379 16.6324 14.9857 16.7584 14.3356 16.8981L14.0713 17.5606C14.1558 17.5448 14.2403 17.5288 14.3247 17.5133C14.355 17.5078 14.3855 17.5028 14.4157 17.4973Z" fill="#02BBFF"/>
<path d="M28.7928 48.5437C29.7414 48.1181 30.7225 47.678 31.7949 47.5397C31.8907 47.5273 31.9858 47.5182 32.0803 47.5115C31.7151 46.2627 31.3402 44.9719 31.2278 43.65C31.1091 42.2545 31.3166 40.9891 31.8284 39.9721C31.8002 39.816 31.7726 39.6595 31.7461 39.5024C31.3715 40.0947 30.9897 40.5915 30.4182 40.8385C29.9436 41.0435 29.3474 41.0481 28.7395 40.8513C28.2151 40.6815 27.7393 40.3931 27.2798 40.1095C27.1421 41.1087 26.666 42.0732 25.959 42.7929C25.9656 43.7536 25.9724 44.746 25.979 45.7389C25.9873 46.9807 25.9955 48.2223 26.0038 49.4036C26.0044 49.4993 26.0052 49.5954 26.0058 49.6902C26.3709 49.6661 26.7323 49.5511 27.089 49.3967C27.3876 49.2675 27.6829 49.1109 27.9741 48.956C28.2415 48.814 28.5181 48.6669 28.7928 48.5437Z" fill="#02BBFF"/>
<path d="M20.4264 40.821C19.9984 41.1046 19.497 41.4063 18.9308 41.4872C18.4657 41.5535 17.8812 41.4359 17.5311 41.0419C17.4397 41.482 17.3415 41.9186 17.2365 42.3518C16.7758 44.2525 16.1851 46.0853 15.4683 47.8323C15.4819 47.83 15.4955 47.8288 15.5093 47.8286C15.6163 47.7807 15.7272 47.7383 15.841 47.7008C15.9418 47.6675 16.0448 47.6379 16.1503 47.6126C16.895 46.1613 17.4322 44.6154 17.7474 43.0134C17.7755 42.8708 17.847 42.6927 17.9636 42.6204C18.0177 42.5868 18.076 42.5784 18.137 42.5953C18.2857 42.6362 18.3345 42.8085 18.3584 42.9343C18.6502 44.4785 18.5745 46.0899 18.1401 47.6C19.0707 47.7803 19.9351 48.1676 20.7742 48.5441C21.0489 48.6673 21.3255 48.8144 21.5929 48.9564C21.8832 49.1108 22.1776 49.2671 22.4752 49.396C22.7048 49.4953 22.9362 49.5784 23.1694 49.6315C23.2191 49.6419 23.2689 49.6519 23.3188 49.6614C23.3993 49.6751 23.4802 49.6851 23.5612 49.6906C23.5619 49.5953 23.5626 49.4991 23.5632 49.4031C23.5714 48.2387 23.5796 47.0326 23.5879 45.826C23.5934 45.0124 23.5989 44.1992 23.6045 43.3984C22.2249 43.0872 21.0165 42.109 20.4264 40.821Z" fill="#02BBFF"/>
<path d="M35.0344 38.6013C35.089 38.6833 35.1406 38.7675 35.1888 38.8535C35.3609 38.7017 35.5335 38.5467 35.6971 38.3895C35.7135 38.3738 35.7268 38.3278 35.7198 38.2732C35.709 38.1917 35.6638 38.1033 35.6164 38.0201C35.2628 37.3979 34.6844 36.9003 34.0183 36.6401C33.9722 36.7283 33.9239 36.8151 33.8743 36.9014C33.794 37.0414 33.7095 37.1792 33.6201 37.3141C34.1875 37.6172 34.6779 38.0649 35.0344 38.6013Z" fill="#02BBFF"/>
<path d="M33.0399 35.0325C31.1965 36.2643 29.0858 37.0686 26.8896 37.3737C27.9643 38.2496 29.188 38.9338 30.5068 39.389C31.6901 38.776 32.6865 37.8248 33.3541 36.6916C33.528 36.3965 33.6799 36.0892 33.8066 35.772C33.7221 35.4063 33.5478 35.0975 33.294 34.8594C33.2099 34.9181 33.125 34.9756 33.0399 35.0325Z" fill="#02BBFF"/>
<path d="M19.8081 19.4481C19.6879 19.2613 19.6272 19.0422 19.5836 18.8527C19.4736 18.3745 19.4305 17.8866 19.4207 17.3977C19.396 17.3998 19.3714 17.4021 19.3466 17.4043C17.6769 17.5485 16.0262 17.7686 14.4244 18.0612C14.3455 18.0757 14.2665 18.0907 14.1876 18.1056C13.2556 18.2805 12.3275 18.482 11.4252 18.7059L11.1806 18.7665C10.2842 18.9876 9.35724 19.2164 8.52532 19.5774C7.92481 19.8378 7.1969 20.4258 6.93574 20.8613C6.72761 21.2081 6.56256 21.7319 6.55811 22.2095C6.57878 22.1863 6.60053 22.1638 6.62428 22.1426C6.70867 22.0676 6.79128 21.9985 6.87833 21.9331C7.12614 21.7471 7.41073 21.5914 7.88133 21.4165C8.94426 21.0215 10.0775 20.8649 11.1736 20.7136C11.533 20.6641 11.9047 20.6127 12.2652 20.554C14.8063 20.1398 17.3807 19.8659 19.9664 19.7329C20.0065 19.7308 20.0465 19.7286 20.0866 19.7267C19.9806 19.6618 19.8843 19.5664 19.8081 19.4481Z" fill="#02BBFF"/>
<path d="M36.7476 21.4315C35.7146 21.2352 34.6761 21.062 33.6333 20.9122C34.3331 21.2528 35.2132 21.7516 35.6587 22.2829C36.4914 23.2759 36.9021 24.2598 36.9905 25.4731C37.1344 27.4471 36.8336 28.9517 36.0711 30.0729C34.9684 31.6938 33.4118 32.875 31.5696 33.4886C29.5087 34.175 27.1805 34.5772 25.2901 34.5772C25.217 34.5772 25.145 34.5767 25.0734 34.5754C23.1367 34.5429 20.6146 34.3868 18.2816 33.4603C17.1598 33.0148 16.1196 32.3906 15.2732 31.6554C14.3313 30.8373 13.6295 29.8955 13.187 28.8563C12.8168 27.9868 12.6719 26.7519 12.7994 25.5529C12.9481 24.1544 13.4551 22.9625 14.227 22.1971C14.9008 21.5287 15.8922 20.9458 16.9134 20.5151C15.6691 20.6342 14.4297 20.7861 13.1975 20.9713C13.1956 20.9885 13.1922 21.0059 13.1869 21.023L13.1796 21.0463C12.6511 22.7489 12.1414 24.3908 12.0419 26.0317C11.9865 26.9447 12.0581 27.8574 12.3242 28.7799C12.706 30.1035 13.4978 31.3567 14.614 32.4042C15.4249 33.1653 16.3915 33.8076 17.4473 34.2933C17.7535 34.4342 18.0668 34.5625 18.3864 34.6759C20.9029 35.5687 23.8908 35.8488 27.2678 35.5083C28.8706 35.3467 30.539 34.9668 32.0922 34.4098C32.1403 34.3925 32.1874 34.374 32.2351 34.3561C33.7218 33.7978 34.9661 32.9336 35.9339 31.7843C37.0322 30.4802 37.6901 28.7205 37.7867 26.8295C37.7911 26.7416 37.7942 26.6533 37.7964 26.5649C37.8362 24.9498 37.4912 23.2576 36.7689 21.5307C36.7552 21.4982 36.7485 21.4647 36.7476 21.4315Z" fill="#02BBFF"/>
<path d="M31.1592 29.7547C32.8912 29.7547 34.3004 28.1481 34.3004 26.1734C34.3004 25.2348 33.982 24.3797 33.462 23.7403C33.4283 23.6991 33.394 23.6587 33.3587 23.6192C32.7916 22.9844 32.0149 22.592 31.1592 22.592C30.7352 22.592 30.3307 22.6885 29.9614 22.8628C29.919 22.8829 29.877 22.9039 29.8356 22.926C28.7632 23.4965 28.0181 24.7374 28.0181 26.1734C28.0181 28.1481 29.4271 29.7547 31.1592 29.7547ZM28.584 26.4338C28.5776 26.3479 28.5737 26.2612 28.5737 26.1734C28.5737 25.7833 28.6379 25.4106 28.7533 25.0678C28.7632 25.0386 28.7729 25.0095 28.7836 24.9808C29.1799 23.9044 30.0954 23.1487 31.1592 23.1487C32.3004 23.1487 33.2705 24.0185 33.6126 25.2209C33.6194 25.2448 33.6262 25.2686 33.6326 25.2927C33.6919 25.5202 33.7289 25.7588 33.7404 26.0055C33.743 26.0584 33.7443 26.1117 33.7445 26.1654C33.7445 26.1681 33.7447 26.1707 33.7447 26.1734C33.7447 27.8412 32.5848 29.198 31.1592 29.198C29.8519 29.198 28.7687 28.0566 28.5979 26.5811C28.5922 26.5323 28.5875 26.4832 28.584 26.4338Z" fill="#02BBFF"/>
<path d="M18.6002 29.7547C20.3323 29.7547 21.7413 28.1481 21.7413 26.1734C21.7413 24.7532 21.0124 23.5234 19.9588 22.9446C19.9161 22.9212 19.873 22.899 19.8293 22.8778C19.4516 22.694 19.0361 22.592 18.6002 22.592C17.9418 22.592 17.3302 22.8245 16.8247 23.2207C16.7838 23.2528 16.7436 23.286 16.7041 23.32C15.9481 23.9747 15.459 25.01 15.459 26.1734C15.459 28.1481 16.8682 29.7547 18.6002 29.7547ZM16.0249 26.4338C16.0187 26.3479 16.0148 26.2612 16.0148 26.1734C16.0148 25.7833 16.0789 25.4106 16.1944 25.0678C16.2043 25.0386 16.214 25.0095 16.2245 24.9808C16.621 23.9044 17.5364 23.1487 18.6002 23.1487C19.7414 23.1487 20.7116 24.0185 21.0535 25.2209C21.0604 25.2448 21.0673 25.2686 21.0735 25.2927C21.1328 25.5202 21.1699 25.7588 21.1815 26.0055C21.184 26.0584 21.1854 26.1117 21.1855 26.1654C21.1855 26.1681 21.1856 26.1707 21.1856 26.1734C21.1856 27.8412 20.0259 29.198 18.6002 29.198C17.2928 29.198 16.2096 28.0566 16.0389 26.5811C16.0332 26.5323 16.0285 26.4832 16.0249 26.4338Z" fill="#02BBFF"/>
<path d="M15.5273 40.7399C15.1664 40.291 14.7383 39.9097 14.2843 39.5117C14.2621 39.4923 14.2402 39.4729 14.2179 39.4533C14.2171 39.4527 14.2163 39.452 14.2155 39.4514C14.1634 39.4056 14.1106 39.3591 14.0577 39.3126C13.9744 39.2392 13.891 39.1652 13.8075 39.0901C13.3768 39.1564 12.9653 39.3216 12.6084 39.5711C12.6534 39.663 12.6893 39.7591 12.7158 39.858C12.7499 39.985 12.768 40.1168 12.7656 40.2526C12.8937 40.4629 12.9931 40.6868 13.0633 40.9166C13.0706 40.9404 13.0775 40.9642 13.0841 40.988C13.2353 41.5329 13.2218 42.1069 13.0297 42.6118C12.993 42.7084 12.949 42.8016 12.8994 42.8912C12.837 43.0039 12.7654 43.1109 12.6856 43.2106C13.9864 43.1289 15.23 42.3298 15.8303 41.1684C15.8318 41.1653 15.8338 41.1624 15.8356 41.1593C15.7805 41.0764 15.721 40.9928 15.6578 40.9085C15.616 40.8526 15.5728 40.7966 15.5273 40.7399Z" fill="#004777"/>
<path d="M32.0974 48.0681C32.0208 48.0741 31.9436 48.0818 31.8657 48.0918C30.8746 48.2197 29.9316 48.6427 29.0197 49.0518C28.762 49.1674 28.5057 49.3036 28.2344 49.4479C28.0309 49.5561 27.8253 49.665 27.6169 49.7666C27.5043 49.8214 27.3906 49.8742 27.2759 49.9232C28.0545 50.3669 29.0109 50.4784 29.9396 50.528C31.8088 50.6276 33.3309 50.6077 34.7032 50.4601C34.6617 50.3637 34.6162 50.2689 34.5677 50.1759C34.0527 49.1907 33.1528 48.4191 32.0974 48.0681Z" fill="#004777"/>
<path d="M21.3326 49.448C21.0613 49.3038 20.805 49.1675 20.5473 49.052C19.6352 48.6429 18.6923 48.2198 17.7011 48.0919C17.6776 48.0889 17.6543 48.0863 17.6309 48.0837C16.552 48.4085 15.6196 49.1831 15.1031 50.1866C15.0552 50.2797 15.0107 50.3746 14.9702 50.4713C16.3148 50.6086 17.8062 50.6251 19.6273 50.5281C20.5559 50.4786 21.5124 50.3671 22.291 49.9234C22.1764 49.8744 22.0627 49.8216 21.9501 49.7667C21.7417 49.6652 21.5362 49.5562 21.3326 49.448Z" fill="#004777"/>
<path d="M10.8091 41.3083C10.7706 41.3039 10.7323 41.2984 10.6941 41.2916C10.6524 41.2842 10.6109 41.2755 10.5697 41.2653C10.4207 41.2283 10.3298 41.0775 10.3666 40.9283C10.4035 40.7791 10.554 40.6881 10.703 40.7248C11.2229 40.8537 11.8184 40.6574 12.1721 40.2544C12.1726 40.2484 12.1736 40.2424 12.1744 40.2366C12.1789 40.2042 12.1886 40.1727 12.2041 40.1437C12.1532 39.729 11.7788 39.2395 11.2122 39.0774C11.0865 39.0413 10.9548 39.0239 10.821 39.0239C10.3948 39.0239 9.94748 39.2011 9.6049 39.5208C9.19229 39.906 8.91896 40.4843 8.83528 41.1493C8.76763 41.6866 9.2293 42.2694 9.56645 42.6949C9.95088 43.18 10.478 43.4798 10.9765 43.4966C11.0121 43.4979 11.0476 43.4975 11.0831 43.4958C11.1625 43.4922 11.2415 43.4814 11.3195 43.4641C11.6322 43.3948 11.9276 43.2197 12.1574 42.9746C12.3079 42.8143 12.4306 42.6244 12.5108 42.4135C12.7017 41.9117 12.6648 41.3182 12.4233 40.7904C11.9895 41.1795 11.3888 41.3752 10.8091 41.3083Z" fill="#004777"/>
<path d="M22.9002 37.9856C22.3585 38.6109 22.2554 39.5994 22.655 40.336C23.0233 41.015 23.7912 41.457 24.57 41.4571C24.634 41.4571 24.698 41.4541 24.762 41.448C25.5887 41.3694 26.3693 40.762 26.6604 39.9709C26.9507 39.182 26.7664 38.223 26.2019 37.5847C26.1709 37.5497 26.1504 37.5089 26.14 37.4664C25.7264 37.0991 25.3365 36.7034 24.9734 36.2813C24.9526 36.2572 24.937 36.2306 24.926 36.2026C24.8302 36.2041 24.7351 36.2046 24.6401 36.2048C24.6291 36.232 24.6138 36.2579 24.5935 36.2813C24.0973 36.8582 23.5508 37.3858 22.9624 37.8587C22.9532 37.9042 22.9326 37.948 22.9002 37.9856ZM23.2469 38.337C23.2605 38.3159 23.2747 38.2952 23.2892 38.275C23.5887 37.8578 24.0772 37.5853 24.6282 37.5853C25.1709 37.5853 25.6531 37.8495 25.9537 38.2561C25.9685 38.2763 25.983 38.2967 25.997 38.3175C26.1735 38.5803 26.2767 38.8968 26.2767 39.2367C26.2767 40.1474 25.5372 40.8882 24.6282 40.8882C23.7191 40.8882 22.9796 40.1474 22.9796 39.2367C22.9796 38.9049 23.0781 38.5959 23.2469 38.337Z" fill="#004777"/>
<path d="M35.5194 39.3037C35.4631 39.3532 35.4069 39.4025 35.3513 39.4513C35.3327 39.4676 35.3142 39.4838 35.2957 39.5C34.8561 39.8855 34.441 40.255 34.0863 40.684C34.071 40.7026 34.0549 40.7207 34.0397 40.7397C34.0224 40.7613 34.0052 40.7826 33.9882 40.8039C33.4567 41.4695 33.1064 41.988 33.056 42.8525C33.0548 42.874 33.0508 42.8948 33.0449 42.9147C33.1124 43.1724 33.1823 43.4286 33.2546 43.6834C33.4637 43.1593 33.8529 42.7425 34.2665 42.4511C34.2868 42.4367 34.3073 42.4227 34.3277 42.409C34.4688 42.3142 34.6116 42.2339 34.7504 42.1689C35.0765 42.0163 35.7168 41.8239 36.352 41.762C36.5311 41.7445 36.6971 41.7394 36.8506 41.7455C36.9697 41.7502 37.0816 41.7616 37.1849 41.7802C36.8187 40.8442 36.2495 39.997 35.5194 39.3037Z" fill="#004777"/>
<path d="M36.7475 42.2993C36.168 42.2993 35.4089 42.4751 34.9852 42.6735C34.8612 42.7314 34.7431 42.7989 34.6319 42.8738C34.6106 42.8881 34.5894 42.9026 34.5687 42.9176C34.0879 43.2621 33.7506 43.7504 33.6714 44.2457C33.6093 44.6349 33.7195 45.2382 33.9485 45.6896C34.0399 45.8696 34.1502 46.0256 34.2759 46.1342C34.5174 46.3423 34.884 46.4537 35.3067 46.4485C35.7493 46.4429 36.1851 46.3136 36.5669 46.0906C36.6019 46.0702 36.6364 46.0488 36.6706 46.0267C37.0625 45.7736 37.3894 45.4193 37.5951 44.9992C37.9698 44.2332 37.93 43.2659 37.4936 42.5346C37.4227 42.4158 37.2583 42.3478 37.0429 42.3179C36.9523 42.3054 36.853 42.2993 36.7475 42.2993Z" fill="#004777"/>
<path d="M13.5905 24.4094C13.4779 24.7832 13.3972 25.1864 13.3519 25.6122C13.2357 26.7043 13.3685 27.8639 13.6981 28.6382C14.4808 30.4762 16.226 32.0453 18.4864 32.943C20.7359 33.8364 23.1932 33.9874 25.0827 34.0191C26.9505 34.0503 29.3101 33.6547 31.3942 32.9607C33.1199 32.3858 34.5783 31.279 35.6118 29.7596C36.2915 28.7604 36.5629 27.3952 36.4413 25.5889C36.4396 25.5638 36.4381 25.539 36.4362 25.5139C36.4355 25.5036 36.4345 25.4935 36.4337 25.4833C36.3498 24.4084 35.9788 23.5305 35.2332 22.6413C34.5788 21.8609 32.4152 20.9025 31.3823 20.6259C29.7064 20.4397 28.0225 20.3134 26.3368 20.2481C24.1111 20.1619 21.8804 20.1819 19.659 20.3069C19.6364 20.3162 19.6123 20.323 19.5867 20.3262C18.0805 20.5119 15.81 21.4106 14.6179 22.5929C14.1855 23.0217 13.8467 23.6104 13.6221 24.3083C13.6113 24.3417 13.6008 24.3755 13.5905 24.4094ZM29.8357 22.9261C29.877 22.904 29.919 22.8829 29.9614 22.8629C30.3307 22.6886 30.7352 22.5921 31.1592 22.5921C32.0149 22.5921 32.7916 22.9843 33.3587 23.6193C33.394 23.6587 33.4284 23.6991 33.462 23.7404C33.982 24.3796 34.3004 25.2349 34.3004 26.1734C34.3004 28.1482 32.8912 29.7547 31.1592 29.7547C29.4271 29.7547 28.0181 28.1482 28.0181 26.1734C28.0181 24.7375 28.7632 23.4965 29.8357 22.9261ZM23.0027 29.1924C23.1195 29.0925 23.2948 29.1066 23.3943 29.2234C23.776 29.6714 24.3545 29.9479 24.9421 29.9633C25.53 29.9782 26.1219 29.7324 26.5261 29.3049C26.6316 29.1934 26.8074 29.1886 26.9189 29.2943C27.0303 29.4 27.0351 29.5763 26.9296 29.6878C26.4337 30.2122 25.714 30.5206 24.9931 30.5206C24.9713 30.5206 24.9495 30.5203 24.9277 30.5197C24.185 30.5004 23.4538 30.1509 22.9717 29.5847C22.8721 29.4678 22.886 29.2921 23.0027 29.1924ZM16.7043 23.3201C16.7437 23.2859 16.7839 23.2528 16.8248 23.2208C17.3303 22.8244 17.9419 22.5921 18.6003 22.5921C19.0362 22.5921 19.4518 22.6939 19.8295 22.8777C19.8731 22.8991 19.9163 22.9213 19.9589 22.9447C21.0127 23.5233 21.7416 24.7531 21.7416 26.1734C21.7416 28.1482 20.3324 29.7547 18.6003 29.7547C16.8683 29.7547 15.4592 28.1482 15.4592 26.1734C15.4592 25.0101 15.9483 23.9748 16.7043 23.3201Z" fill="#004777"/>
<path d="M32.2891 48.0581C32.2257 48.0602 32.1619 48.0637 32.0977 48.0686C33.153 48.4195 34.0528 49.1911 34.5678 50.1765C34.6164 50.2694 34.6618 50.3641 34.7033 50.4606C34.729 50.4579 34.7546 50.4549 34.7803 50.4521C35.0749 50.4193 35.363 50.3807 35.646 50.3358C35.4295 49.8023 35.0436 49.2539 34.615 48.849C34.5863 48.8366 34.5592 48.8193 34.5353 48.7969C34.3859 48.6573 34.2162 48.537 34.0309 48.4358C33.5425 48.1687 32.9417 48.0369 32.2891 48.0581Z" fill="#0086D8"/>
<path d="M17.6307 48.0838C17.5676 48.0767 17.5048 48.071 17.4424 48.0666C16.7268 48.0161 16.0658 48.146 15.5368 48.4347C15.3511 48.5362 15.1812 48.6569 15.0316 48.7968C15.0077 48.8191 14.9806 48.8365 14.9519 48.8489C14.5232 49.2537 14.1374 49.8022 13.9209 50.3357C14.2381 50.3859 14.5613 50.4284 14.8933 50.4636C14.9187 50.4662 14.9443 50.469 14.97 50.4716C15.0105 50.3747 15.0551 50.2799 15.103 50.1868C15.6193 49.1834 16.5517 48.4087 17.6307 48.0838Z" fill="#0086D8"/>
<path d="M43.3222 24.162C43.1512 23.6804 42.7675 23.2349 42.2324 22.9086C41.6407 22.5479 40.9387 22.3589 40.2112 22.1817C39.2728 21.9531 38.3281 21.7442 37.3784 21.5547C38.053 23.243 38.3801 24.9024 38.3531 26.4962C38.3514 26.597 38.3483 26.6975 38.3438 26.7977C39.4786 26.6417 40.7861 26.139 42.2344 25.3013C42.7367 25.0107 43.1188 24.7405 43.4051 24.4835C43.4034 24.4763 43.4017 24.4692 43.4006 24.4619C43.384 24.3609 43.3572 24.2608 43.3222 24.162Z" fill="#0086D8"/>
<path d="M22.5389 37.4843C22.568 37.4613 22.5972 37.4385 22.626 37.4153C23.088 37.043 23.5225 36.6353 23.9257 36.1954C21.8274 36.1389 19.9107 35.8072 18.2007 35.2005C17.7745 35.0493 17.3587 34.873 16.9559 34.6754C16.863 34.6299 16.7706 34.5835 16.6792 34.5356C16.5462 34.6136 16.4216 34.7101 16.3091 34.8207C16.2915 34.8382 16.274 34.8556 16.2568 34.8735C16.3305 34.9393 16.4054 35.0036 16.4811 35.0672C18.1695 36.4877 20.3384 37.3548 22.5389 37.4843Z" fill="#0086D8"/>
<path d="M20.6408 15.405C20.6654 15.4029 20.6902 15.4009 20.7149 15.3988C20.7117 13.7652 21.1319 12.0338 21.9315 10.3893C22.6303 8.95214 23.6443 7.51924 24.9458 6.13049C26.0852 4.9145 27.1145 4.09158 28.1851 3.5407C29.8061 2.70652 31.7707 2.37491 34.0335 2.55071C34.1905 2.56291 34.349 2.57743 34.5089 2.59452C34.4633 2.56467 34.4178 2.53502 34.3723 2.5056C34.2038 2.39641 34.0362 2.28991 33.8716 2.18538C33.8664 2.18203 33.8626 2.17736 33.8597 2.17228C33.5078 2.04997 33.136 1.93884 32.7428 1.83874C30.977 1.38912 29.3281 1.29291 27.8423 1.55275C26.3107 1.82059 24.8267 2.4865 23.431 3.532C22.1743 4.47352 21.0028 5.72722 20.0434 7.15756C18.2438 9.8405 17.1728 12.9488 16.1602 15.9771C16.2705 15.9579 16.381 15.9398 16.4913 15.9215C17.8692 15.6915 19.2542 15.5189 20.6408 15.405Z" fill="#0086D8"/>
<path d="M25.4229 45.7428C25.4142 44.43 25.4054 43.1179 25.3967 41.8789C25.2082 41.9413 25.0131 41.9833 24.8144 42.0021C24.7343 42.0097 24.654 42.0135 24.5739 42.0135C24.4386 42.0135 24.3035 42.0024 24.1699 41.9819C24.1611 43.2295 24.1523 44.5292 24.1435 45.8296C24.135 47.0591 24.1267 48.2875 24.1183 49.4723C24.1176 49.5717 24.117 49.6714 24.1162 49.77C24.5599 49.8077 25.0066 49.808 25.4503 49.7709C25.4496 49.6721 25.449 49.572 25.4482 49.4723C25.4397 48.2717 25.4313 47.0074 25.4229 45.7428Z" fill="#0086D8"/>
<path d="M33.2942 34.8594C33.2757 34.842 33.2567 34.8252 33.2373 34.8086C33.1662 34.7475 33.0892 34.6916 33.007 34.6411C32.9124 34.6831 32.8167 34.7238 32.7203 34.7634C32.5756 34.8231 32.4288 34.8803 32.2793 34.934C30.6842 35.506 28.9704 35.8961 27.3234 36.0621C26.748 36.1203 26.1834 36.1603 25.6299 36.183C25.9984 36.5863 26.3933 36.9625 26.8114 37.3094C26.8375 37.3309 26.8637 37.3523 26.89 37.3737C29.0859 37.0686 31.1967 36.2643 33.0401 35.0325C33.1253 34.9756 33.2102 34.9181 33.2942 34.8594Z" fill="#0086D8"/>
<path d="M28.7392 40.8511C29.3472 41.0478 29.9433 41.0432 30.4179 40.8382C30.9894 40.5912 31.3712 40.0945 31.7459 39.5022C31.7396 39.4656 31.7338 39.4286 31.7277 39.3918C31.7224 39.3604 31.7172 39.3289 31.7121 39.2975C31.3774 39.5394 31.0228 39.7545 30.6518 39.939C30.613 39.9584 30.5707 39.9681 30.5282 39.9681C30.4986 39.9681 30.4689 39.9633 30.4402 39.9537C29.2901 39.5693 28.2074 39.0189 27.2244 38.3252C27.3869 38.8767 27.3949 39.4734 27.2301 40.0169C27.2228 40.0412 27.2153 40.0654 27.2073 40.0894C27.199 40.114 27.1906 40.1386 27.1817 40.1629C26.9549 40.7792 26.5065 41.2961 25.9507 41.6255C25.9531 41.9734 25.9556 42.3276 25.9581 42.6864C25.9583 42.7218 25.9586 42.7572 25.9589 42.7926C26.6657 42.0728 27.1419 41.1085 27.2795 40.1093C27.7391 40.3928 28.2148 40.6813 28.7392 40.8511Z" fill="#0086D8"/>
<path d="M16.9039 41.3204C17.0728 40.5456 17.2206 39.7603 17.3461 38.9649C17.3491 38.9454 17.3542 38.9267 17.3609 38.909C16.8198 38.4463 16.3436 37.9105 15.9517 37.3215C15.9379 37.3007 15.9241 37.2798 15.9103 37.2588C15.2338 37.5765 14.6901 38.1677 14.4285 38.8687C14.4258 38.8761 14.4226 38.8833 14.4199 38.8905C14.4311 38.9003 14.4421 38.9101 14.4531 38.9198C14.462 38.9275 14.4708 38.9353 14.4796 38.9429C14.5136 38.9727 14.5476 39.0027 14.5812 39.0322C15.0576 39.4495 15.5504 39.8811 15.9599 40.3906C15.9646 40.3963 15.9689 40.4021 15.9734 40.4078C16.353 40.8829 16.6202 41.3447 16.7901 41.8279C16.8291 41.6593 16.8669 41.49 16.9039 41.3204Z" fill="#0086D8"/>
<path d="M22.1668 40.6016C21.8312 39.9828 21.7697 39.2458 21.9616 38.584C21.0822 39.157 20.13 39.6187 19.1267 39.9541C19.098 39.9635 19.0683 39.9684 19.0387 39.9684C18.9962 39.9684 18.9539 39.9586 18.9151 39.9394C18.5441 39.7549 18.1896 39.5396 17.8548 39.2978C17.7639 39.853 17.6626 40.4036 17.5506 40.9491C17.5442 40.98 17.5377 41.0108 17.5312 41.0416C17.8815 41.4355 18.4659 41.5532 18.931 41.4869C19.4973 41.4059 19.9986 41.1043 20.4266 40.8208C21.0168 42.1087 22.2251 43.0869 23.6047 43.3981C23.6048 43.3729 23.6051 43.3476 23.6052 43.3222C23.6087 42.8204 23.6121 42.3242 23.6156 41.8361C23.0065 41.6074 22.4755 41.1707 22.1668 40.6016Z" fill="#0086D8"/>
<path d="M12.3545 21.1033C11.9873 21.1631 11.6123 21.2149 11.2495 21.265C10.1832 21.4121 9.08053 21.5645 8.07469 21.9382C7.51447 22.1464 7.2796 22.3042 6.99324 22.5589C6.96288 22.5858 6.94071 22.6237 6.92604 22.6707C6.87783 22.825 6.91367 23.0815 7.03254 23.405C7.03499 23.4117 7.0369 23.4184 7.03881 23.4252C7.28432 23.7144 7.59525 23.9662 7.91102 24.1997C9.01347 25.0148 10.2141 25.6912 11.4814 26.2125C11.4857 26.1079 11.4916 26.0032 11.499 25.8986C11.6147 24.2626 12.101 22.6479 12.5918 21.0654C12.5127 21.0779 12.4336 21.0904 12.3545 21.1033Z" fill="#0086D8"/>
<path d="M33.6199 37.314C33.6062 37.3348 33.5922 37.3553 33.5783 37.3758C33.1934 37.9434 32.7301 38.4607 32.2056 38.9091C32.2123 38.9267 32.2174 38.9455 32.2205 38.965C32.3671 39.8951 32.544 40.812 32.7502 41.7138C32.9512 41.2339 33.255 40.828 33.6067 40.3907C33.9899 39.9141 34.4457 39.5058 34.8929 39.1133C34.9236 39.0864 34.9545 39.0592 34.9851 39.0323C35.0338 38.9898 35.0828 38.9468 35.1319 38.9036C35.1508 38.887 35.1697 38.8702 35.1887 38.8534C35.1406 38.7674 35.0889 38.6834 35.0343 38.6012C34.6777 38.065 34.1874 37.6171 33.6199 37.314Z" fill="#0086D8"/>
<path d="M31.1593 29.1979C32.585 29.1979 33.7447 27.8411 33.7447 26.1733C33.7447 26.1706 33.7446 26.168 33.7446 26.1653C33.7445 26.1116 33.743 26.0583 33.7406 26.0054C33.566 26.3855 33.3052 26.7358 32.9767 27.0238C32.4933 27.4477 31.8957 27.7092 31.2941 27.76C30.6928 27.8106 30.0596 27.6534 29.5122 27.3166C29.1377 27.0862 28.82 26.7821 28.584 26.4337C28.5876 26.4831 28.5923 26.5323 28.5979 26.581C28.7686 28.0565 29.8518 29.1979 31.1593 29.1979Z" fill="#36D9FF"/>
<path d="M18.6001 29.1979C20.0257 29.1979 21.1856 27.8411 21.1856 26.1733C21.1856 26.1706 21.1855 26.168 21.1854 26.1653C21.1854 26.1116 21.1839 26.0583 21.1814 26.0054C21.0069 26.3855 20.746 26.7358 20.4177 27.0238C19.9343 27.4477 19.3367 27.7092 18.735 27.76C18.1337 27.8106 17.5005 27.6534 16.953 27.3166C16.5786 27.0862 16.261 26.7821 16.0249 26.4337C16.0285 26.4831 16.0332 26.5323 16.0388 26.581C16.2096 28.0565 17.2928 29.1979 18.6001 29.1979Z" fill="#36D9FF"/>
<path d="M24.6281 40.8881C25.5371 40.8881 26.2767 40.1473 26.2767 39.2366C26.2767 38.8967 26.1734 38.5802 25.9969 38.3174C25.9785 38.3343 25.9596 38.3505 25.9406 38.3669C25.5774 38.6789 25.1031 38.8616 24.6243 38.8647C24.6202 38.8647 24.6162 38.8647 24.612 38.8647C24.1382 38.8647 23.6674 38.6891 23.3037 38.3854C23.2845 38.3694 23.2654 38.3535 23.2468 38.3368C23.078 38.5958 22.9795 38.9049 22.9795 39.2366C22.9795 40.1473 23.7191 40.8881 24.6281 40.8881Z" fill="#36D9FF"/>
<path d="M41.4358 20.5028C41.1679 20.2382 40.8741 20.0025 40.568 19.784C40.3064 19.5971 40.0358 19.4226 39.7646 19.2536C38.2944 18.8637 36.8008 18.5263 35.3018 18.2447C34.6315 18.1188 33.9601 18.0042 33.2893 17.9012C29.0245 17.2461 24.7552 17.0472 20.5996 17.3101C20.2058 17.3349 19.8126 17.3642 19.4204 17.3975C19.4301 17.8864 19.4732 18.3743 19.5833 18.8524C19.6269 19.042 19.6876 19.261 19.8078 19.4478C19.884 19.5661 19.9802 19.6615 20.0863 19.7264C22.1735 19.6225 24.2677 19.6106 26.3578 19.6916C27.9682 19.7538 29.5768 19.8714 31.1786 20.0431C31.222 20.0298 31.2694 20.027 31.3172 20.0371C31.3688 20.0482 31.4242 20.0614 31.4828 20.0766C34.4724 20.4102 37.437 20.9329 40.3423 21.6407C41.1141 21.8286 41.8614 22.0307 42.5212 22.433C42.5331 22.4402 42.5447 22.4476 42.5564 22.455C42.3956 21.6036 41.8687 20.9302 41.4358 20.5028Z" fill="#52F3FF"/>
<path d="M20.5651 16.7544C24.547 16.5026 28.6318 16.671 32.7171 17.2539C32.6752 16.9536 32.5684 16.6646 32.4048 16.4091C29.8848 15.999 27.3111 15.7935 24.7238 15.7935C22.969 15.7935 21.2079 15.8878 19.4521 16.0763C19.4396 16.3291 19.4282 16.5836 19.4224 16.8388C19.8025 16.8068 20.1835 16.7786 20.5651 16.7544Z" fill="#52F3FF"/>
<path d="M16.953 27.3164C17.5005 27.6532 18.1337 27.8104 18.735 27.7598C19.3367 27.709 19.9343 27.4476 20.4175 27.0237C20.746 26.7357 21.0069 26.3854 21.1814 26.0052C21.1698 25.7586 21.1328 25.5199 21.0735 25.2924C21.0339 25.3006 20.9929 25.3048 20.9513 25.3048C20.8372 25.3048 20.7195 25.2748 20.6194 25.2174C20.4552 25.1232 20.3285 24.9803 20.2059 24.8423C20.1512 24.7808 20.0948 24.7171 20.0361 24.6592C19.3899 24.0214 18.2271 23.9906 17.548 24.5934C17.4805 24.6534 17.4159 24.7198 17.3535 24.784C17.2589 24.8814 17.161 24.982 17.0491 25.0647C16.8247 25.2303 16.5724 25.2832 16.3737 25.2064C16.3043 25.1795 16.2421 25.1298 16.1943 25.0677C16.0788 25.4104 16.0146 25.7831 16.0146 26.1732C16.0146 26.2609 16.0185 26.3477 16.0249 26.4336C16.261 26.782 16.5786 27.0861 16.953 27.3164ZM17.5439 25.0673C17.7262 24.8235 18.0742 24.5707 18.441 24.5552C18.6564 24.5464 18.8431 24.6244 18.983 24.7817C19.2173 25.0452 19.3111 25.4002 19.2337 25.7316C19.1633 26.0337 18.9632 26.2652 18.6703 26.3837C18.5565 26.4298 18.4344 26.4519 18.3119 26.452C18.0452 26.452 17.7767 26.3467 17.5879 26.1534C17.4446 26.0069 17.3592 25.8273 17.3475 25.6475C17.3353 25.459 17.405 25.2529 17.5439 25.0673Z" fill="#52F3FF"/>
<path d="M7.79163 31.1286C7.91457 30.6099 7.91985 30.0177 7.80773 29.3183C7.69388 28.608 7.4911 27.9805 7.20445 27.447C7.29935 27.8101 7.36639 28.1677 7.3874 28.5337C7.39201 28.6137 7.39339 28.6927 7.39311 28.7709C7.3906 29.517 7.16932 30.1748 6.75823 30.6416C6.3857 31.0646 5.85474 31.2989 5.3459 31.2989C5.12264 31.2989 4.90368 31.2539 4.70415 31.1598C4.06488 30.8587 3.65169 30.087 3.59883 29.0958C3.58143 28.7692 3.59572 28.4367 3.60954 28.1151C3.62983 27.6421 3.65082 27.1531 3.57003 26.6818C3.43782 25.9107 3.01406 25.1958 2.41924 24.687C2.21933 24.516 2.00012 24.3682 1.76611 24.2495C2.15719 24.817 2.38918 25.4276 2.47115 26.1005C2.56405 26.8625 2.49061 27.7044 2.24004 28.7495C2.21757 28.8432 2.19416 28.9373 2.17073 29.0314C2.01429 29.6601 1.86653 30.254 1.96182 30.8373C2.0679 31.4865 2.50378 32.1091 3.12787 32.5027C3.7357 32.8861 4.58693 33.1319 5.30294 33.1319C5.31025 33.1319 5.31745 33.1319 5.32469 33.1319C5.87324 33.128 6.37195 32.9491 6.89416 32.5689C7.32754 32.2532 7.64627 31.7418 7.79163 31.1286Z" fill="#52F3FF"/>
<path d="M29.5122 27.3164C30.0596 27.6532 30.6928 27.8104 31.2941 27.7598C31.8957 27.709 32.4933 27.4476 32.9767 27.0237C33.3051 26.7357 33.566 26.3854 33.7406 26.0052C33.7289 25.7586 33.6919 25.5199 33.6326 25.2924C33.593 25.3006 33.552 25.3048 33.5105 25.3048C33.3964 25.3048 33.2787 25.2748 33.1787 25.2174C33.0142 25.1232 32.8876 24.9803 32.7649 24.8423C32.7103 24.7808 32.6539 24.7171 32.5953 24.6592C31.9489 24.0214 30.7862 23.9906 30.1071 24.5934C30.0396 24.6534 29.975 24.7198 29.9126 24.784C29.818 24.8814 29.7203 24.982 29.6081 25.0647C29.3838 25.2303 29.1315 25.2832 28.9328 25.2064C28.8634 25.1795 28.8013 25.1298 28.7533 25.0677C28.638 25.4104 28.5737 25.7831 28.5737 26.1732C28.5737 26.2609 28.5776 26.3477 28.584 26.4336C28.82 26.782 29.1377 27.0861 29.5122 27.3164ZM30.103 25.0673C30.2853 24.8235 30.6333 24.5707 31.0002 24.5552C31.2152 24.5464 31.4022 24.6244 31.5421 24.7817C31.7765 25.0452 31.8702 25.4002 31.7928 25.7316C31.7224 26.0337 31.5223 26.2652 31.2295 26.3837C31.1156 26.4298 30.9934 26.4519 30.8711 26.452C30.6043 26.452 30.3358 26.3467 30.1469 26.1534C30.0037 26.0069 29.9184 25.8273 29.9066 25.6475C29.8944 25.459 29.9642 25.2529 30.103 25.0673Z" fill="#52F3FF"/>
<path d="M32.6011 3.50126C31.4014 3.65783 30.299 4.37471 29.7814 5.31492C29.7694 5.16587 29.7089 5.00675 29.6423 4.88748C29.542 4.70736 29.3354 4.53944 29.1006 4.57063C28.9065 4.59634 28.7394 4.74851 28.5897 5.03582C28.0636 6.04636 28.0116 7.1269 28.4308 8.33913C28.8036 9.41772 29.4937 10.4382 30.1114 11.31C30.2023 11.4383 30.294 11.5668 30.386 11.6956C31.3161 12.9987 32.276 14.3436 32.6533 15.8859C32.6797 15.8903 32.7061 15.8946 32.7324 15.899C33.0462 15.9517 33.3591 16.0077 33.6712 16.0667C33.7815 16.0877 33.8917 16.1089 34.0017 16.1306C33.398 14.1626 32.2937 12.4925 31.127 10.7291C30.672 10.0413 30.2016 9.33014 29.7612 8.59733C29.7382 8.55903 29.7247 8.51574 29.7219 8.47115C29.6492 7.30682 30.1565 6.31253 31.2728 5.43146C31.9211 4.91968 32.4813 4.56482 33.2699 4.37724C33.6284 4.29199 34.1655 4.19382 34.6911 4.21096C34.8804 4.21711 35.053 4.23836 35.2091 4.27387C35.2738 4.28861 35.3356 4.30588 35.3945 4.32564C35.2074 4.17046 35.0041 4.03443 34.7894 3.91908C34.1238 3.56134 33.3486 3.40372 32.6011 3.50126Z" fill="#52F3FF"/>
<path d="M33.8717 2.18522C34.0364 2.28974 34.2039 2.39625 34.3725 2.50544C34.4179 2.53486 34.4634 2.56451 34.509 2.59436C34.7587 2.75802 35.0094 2.92839 35.2552 3.10825C36.0364 3.67989 36.7666 4.34812 37.2473 5.20805C37.8371 6.26328 37.9713 7.55924 37.6502 8.72422C37.5857 8.95831 37.5032 9.18726 37.4018 9.40775C37.4083 9.45034 37.4152 9.49278 37.4234 9.53488C37.447 9.65849 37.478 9.77965 37.5184 9.89633C38.1578 9.37485 38.5569 8.46776 38.5559 7.49355C38.5546 6.16212 37.8568 4.76015 36.6894 3.74325C36.182 3.30126 35.592 2.9215 34.9097 2.59874C34.8787 2.58409 34.8477 2.56954 34.8163 2.55513C34.6066 2.4587 34.3883 2.36754 34.1612 2.28148C34.0624 2.24405 33.962 2.20762 33.8599 2.17212C33.8627 2.1772 33.8665 2.18187 33.8717 2.18522Z" fill="#52F3FF"/>
<path d="M31.2278 43.65C31.3403 44.972 31.7152 46.2627 32.0803 47.5115C32.1056 47.5097 32.1309 47.5083 32.1561 47.5068C32.716 47.4755 33.2487 47.5427 33.7262 47.7003C33.84 47.7378 33.9508 47.7805 34.058 47.8283C34.0716 47.8286 34.0852 47.8298 34.0989 47.8321C33.7625 47.0123 33.4545 46.1734 33.174 45.3179C32.6232 43.638 32.1803 41.8929 31.8504 40.0953C31.8429 40.0543 31.8358 40.0132 31.8284 39.9722C31.3167 40.9892 31.1092 42.2546 31.2278 43.65Z" fill="#52F3FF"/>
<path d="M18.3584 42.934C18.3347 42.808 18.2859 42.6359 18.1372 42.5949C18.0762 42.578 18.0178 42.5865 17.9638 42.6201C17.847 42.6923 17.7755 42.8705 17.7475 43.0131C17.4324 44.6151 16.895 46.161 16.1504 47.6123C16.1818 47.6048 16.2133 47.5975 16.2451 47.5908C16.72 47.4899 17.2368 47.4705 17.7721 47.5397C17.8713 47.5524 17.9694 47.5687 18.067 47.5863C18.0914 47.5908 18.1159 47.5949 18.1403 47.5996C18.5745 46.0895 18.6503 44.4782 18.3584 42.934Z" fill="#52F3FF"/>
<path d="M24.6119 38.8647C24.6159 38.8647 24.6201 38.8647 24.6241 38.8647C25.1028 38.8615 25.5773 38.6789 25.9405 38.3669C25.9594 38.3505 25.9784 38.3343 25.9967 38.3174C25.9828 38.2966 25.9683 38.2762 25.9535 38.256C25.6528 37.8494 25.1707 37.5852 24.6279 37.5852C24.0769 37.5852 23.5885 37.8577 23.289 38.2749C23.2745 38.2951 23.2603 38.3158 23.2466 38.3369C23.2651 38.3535 23.2843 38.3695 23.3034 38.3854C23.6672 38.689 24.138 38.8647 24.6119 38.8647Z" fill="#52F3FF"/>
<path d="M42.4652 20.2673C41.7395 19.8094 40.8939 19.5584 40.09 19.3404C40.0622 19.333 40.0344 19.3257 40.0067 19.3182C39.9261 19.2964 39.8454 19.2749 39.7646 19.2534C40.0359 19.4224 40.3064 19.5969 40.5681 19.7838C40.8742 20.0025 41.1681 20.238 41.4358 20.5026C41.8688 20.9302 42.3956 21.6036 42.5564 22.4548C42.5851 22.4727 42.6135 22.4909 42.6414 22.5095C43.1125 22.8218 43.4782 23.2195 43.7071 23.6583C43.7638 23.7671 43.8125 23.8784 43.8518 23.9917C44.1883 23.512 44.2109 23.0657 44.1032 22.5986C43.9198 21.8036 43.1391 20.6924 42.4652 20.2673Z" fill="#CCFFFB"/>
<path d="M32.7932 17.2651C32.9866 17.293 33.1801 17.3215 33.3736 17.3511C33.9465 17.4392 34.52 17.5363 35.0928 17.6408C35.2075 17.6617 35.3223 17.6825 35.437 17.7041C35.3414 17.4549 35.2123 17.1701 35.0948 16.9299C34.6783 16.8362 34.2596 16.7483 33.8393 16.6663C33.3952 16.5795 32.9493 16.4991 32.5016 16.4253C32.4692 16.42 32.4367 16.4148 32.4043 16.4094C32.5681 16.665 32.6747 16.9539 32.7168 17.2542C32.7422 17.2578 32.7677 17.2614 32.7932 17.2651Z" fill="#CCFFFB"/>
<path d="M16.3738 25.2062C16.5725 25.2832 16.8246 25.2303 17.049 25.0645C17.1611 24.9818 17.259 24.8812 17.3536 24.7838C17.416 24.7196 17.4806 24.6532 17.548 24.5934C18.2272 23.9906 19.3899 24.0213 20.0362 24.6592C20.0949 24.717 20.1513 24.7806 20.2059 24.8421C20.3285 24.9803 20.4552 25.123 20.6195 25.2173C20.7196 25.2747 20.8373 25.3047 20.9514 25.3047C20.993 25.3047 21.034 25.3005 21.0735 25.2924C21.0672 25.2682 21.0604 25.2444 21.0535 25.2206C20.7115 24.0183 19.7414 23.1484 18.6002 23.1484C17.5364 23.1484 16.6209 23.9041 16.2246 24.9805C16.2139 25.0093 16.2042 25.0384 16.1943 25.0675C16.2422 25.1296 16.3044 25.1793 16.3738 25.2062Z" fill="#CCFFFB"/>
<path d="M28.9329 25.2062C29.1316 25.2832 29.3838 25.2303 29.6082 25.0645C29.7202 24.9818 29.8181 24.8812 29.9127 24.7838C29.9751 24.7196 30.0397 24.6532 30.1072 24.5934C30.7863 23.9906 31.949 24.0213 32.5953 24.6592C32.6539 24.717 32.7104 24.7806 32.765 24.8421C32.8877 24.9803 33.0143 25.123 33.1787 25.2173C33.2787 25.2747 33.3965 25.3047 33.5106 25.3047C33.5521 25.3047 33.5931 25.3005 33.6327 25.2924C33.6263 25.2682 33.6194 25.2444 33.6127 25.2206C33.2706 24.0183 32.3004 23.1484 31.1592 23.1484C30.0955 23.1484 29.18 23.9041 28.7837 24.9805C28.7731 25.0093 28.7633 25.0384 28.7534 25.0675C28.8014 25.1296 28.8635 25.1793 28.9329 25.2062Z" fill="#CCFFFB"/>
<path d="M17.5878 26.1532C17.7767 26.3464 18.0452 26.4517 18.3119 26.4517C18.4344 26.4517 18.5565 26.4295 18.6703 26.3835C18.9632 26.265 19.1633 26.0334 19.2338 25.7312C19.3111 25.4 19.2173 25.0448 18.9831 24.7813C18.8432 24.624 18.6564 24.546 18.441 24.5549C18.0743 24.5705 17.7262 24.8233 17.5439 25.0669C17.405 25.2527 17.3354 25.4588 17.3476 25.6473C17.3592 25.8269 17.4446 26.0067 17.5878 26.1532Z" fill="#CCFFFB"/>
<path d="M30.147 26.1532C30.3358 26.3464 30.6043 26.4517 30.871 26.4517C30.9935 26.4517 31.1156 26.4295 31.2295 26.3835C31.5223 26.265 31.7224 26.0334 31.7929 25.7312C31.8702 25.4 31.7765 25.0448 31.5421 24.7813C31.4023 24.624 31.2153 24.546 31.0001 24.5549C30.6334 24.5705 30.2853 24.8233 30.103 25.0669C29.9643 25.2527 29.8944 25.4588 29.9066 25.6473C29.9184 25.8269 30.0037 26.0067 30.147 26.1532Z" fill="#CCFFFB"/>
<path d="M3.57021 26.6815C3.65099 27.1529 3.63001 27.6418 3.60971 28.1148C3.5959 28.4364 3.5816 28.7689 3.599 29.0955C3.65186 30.0869 4.06506 30.8584 4.70433 31.1596C4.90386 31.2536 5.12281 31.2987 5.34607 31.2987C5.85492 31.2987 6.38587 31.0645 6.75841 30.6414C7.1695 30.1746 7.39077 29.5167 7.39329 28.7706C7.39356 28.6923 7.39218 28.6134 7.38759 28.5334C7.36657 28.1675 7.29953 27.8099 7.20463 27.4468C7.15751 27.3591 7.10819 27.2738 7.05653 27.1912C7.05089 27.1823 7.04546 27.173 7.03976 27.1641C6.48594 26.2937 5.57686 25.5664 4.41071 25.0607C3.8781 24.8297 2.95723 24.4723 1.99035 24.2879C1.91565 24.2736 1.84071 24.2604 1.76562 24.2483C1.76586 24.2486 1.76605 24.2489 1.7663 24.2493C2.0003 24.368 2.2195 24.5157 2.41942 24.6868C3.01423 25.1955 3.43801 25.9105 3.57021 26.6815Z" fill="#CCFFFB"/>
</g>
<defs>
<clipPath id="clip0_835_9448">
<rect width="187" height="52" fill="white"/>
</clipPath>
</defs>
</svg>
